<?xml version="1.0" encoding="us-ascii" standalone="no"?><svg xmlns="http://www.w3.org/2000/svg" xmlns:xlink="http://www.w3.org/1999/xlink" contentStyleType="text/css" height="667px" preserveAspectRatio="none" style="width:913px;height:667px;background:#FFFFFF;" version="1.1" viewBox="0 0 913 667" width="913px" zoomAndPan="magnify"><defs/><g><g id="elem_LatteCoffee"><rect codeLine="3" fill="#F1F1F1" height="64.2969" id="LatteCoffee" rx="2.5" ry="2.5" style="stroke:#181818;stroke-width:0.5;" width="144" x="7" y="181"/><ellipse cx="36.85" cy="197" fill="#ADD1B2" rx="11" ry="11" style="stroke:#181818;stroke-width:1.0;"/><path d="M39.8188,202.6406 Q39.2406,202.9375 38.6,203.0781 Q37.9594,203.2344 37.2563,203.2344 Q34.7563,203.2344 33.4281,201.5938 Q32.1156,199.9375 32.1156,196.8125 Q32.1156,193.6875 33.4281,192.0313 Q34.7563,190.375 37.2563,190.375 Q37.9594,190.375 38.6,190.5313 Q39.2563,190.6875 39.8188,190.9844 L39.8188,193.7031 Q39.1938,193.125 38.6,192.8594 Q38.0063,192.5781 37.3813,192.5781 Q36.0375,192.5781 35.35,193.6563 Q34.6625,194.7188 34.6625,196.8125 Q34.6625,198.9063 35.35,199.9844 Q36.0375,201.0469 37.3813,201.0469 Q38.0063,201.0469 38.6,200.7813 Q39.1938,200.5 39.8188,199.9219 L39.8188,202.6406 Z " fill="#000000"/><text fill="#000000" font-family="sans-serif" font-size="14" lengthAdjust="spacing" textLength="79" x="54.15" y="201.8467">LatteCoffee</text><line style="stroke:#181818;stroke-width:0.5;" x1="8" x2="150" y1="213" y2="213"/><line style="stroke:#181818;stroke-width:0.5;" x1="8" x2="150" y1="221" y2="221"/><ellipse cx="18" cy="234.6484" fill="#84BE84" rx="3" ry="3" style="stroke:#038048;stroke-width:1.0;"/><text fill="#000000" font-family="sans-serif" font-size="14" lengthAdjust="spacing" textLength="118" x="27" y="237.9951">getName():String</text></g><g id="elem_AmericanCoffee"><rect codeLine="7" fill="#F1F1F1" height="64.2969" id="AmericanCoffee" rx="2.5" ry="2.5" style="stroke:#181818;stroke-width:0.5;" width="144" x="186" y="181"/><ellipse cx="202.35" cy="197" fill="#ADD1B2" rx="11" ry="11" style="stroke:#181818;stroke-width:1.0;"/><path d="M205.3188,202.6406 Q204.7406,202.9375 204.1,203.0781 Q203.4594,203.2344 202.7563,203.2344 Q200.2563,203.2344 198.9281,201.5938 Q197.6156,199.9375 197.6156,196.8125 Q197.6156,193.6875 198.9281,192.0313 Q200.2563,190.375 202.7563,190.375 Q203.4594,190.375 204.1,190.5313 Q204.7563,190.6875 205.3188,190.9844 L205.3188,193.7031 Q204.6938,193.125 204.1,192.8594 Q203.5063,192.5781 202.8813,192.5781 Q201.5375,192.5781 200.85,193.6563 Q200.1625,194.7188 200.1625,196.8125 Q200.1625,198.9063 200.85,199.9844 Q201.5375,201.0469 202.8813,201.0469 Q203.5063,201.0469 204.1,200.7813 Q204.6938,200.5 205.3188,199.9219 L205.3188,202.6406 Z " fill="#000000"/><text fill="#000000" font-family="sans-serif" font-size="14" lengthAdjust="spacing" textLength="109" x="216.65" y="201.8467">AmericanCoffee</text><line style="stroke:#181818;stroke-width:0.5;" x1="187" x2="329" y1="213" y2="213"/><line style="stroke:#181818;stroke-width:0.5;" x1="187" x2="329" y1="221" y2="221"/><ellipse cx="197" cy="234.6484" fill="#84BE84" rx="3" ry="3" style="stroke:#038048;stroke-width:1.0;"/><text fill="#000000" font-family="sans-serif" font-size="14" lengthAdjust="spacing" textLength="118" x="206" y="237.9951">getName():String</text></g><g id="elem_Coffee"><rect codeLine="11" fill="#F1F1F1" height="96.8906" id="Coffee" rx="2.5" ry="2.5" style="stroke:#181818;stroke-width:0.5;" width="144" x="186" y="7"/><ellipse cx="231.25" cy="23" fill="#ADD1B2" rx="11" ry="11" style="stroke:#181818;stroke-width:1.0;"/><path d="M234.2188,28.6406 Q233.6406,28.9375 233,29.0781 Q232.3594,29.2344 231.6563,29.2344 Q229.1563,29.2344 227.8281,27.5938 Q226.5156,25.9375 226.5156,22.8125 Q226.5156,19.6875 227.8281,18.0313 Q229.1563,16.375 231.6563,16.375 Q232.3594,16.375 233,16.5313 Q233.6563,16.6875 234.2188,16.9844 L234.2188,19.7031 Q233.5938,19.125 233,18.8594 Q232.4063,18.5781 231.7813,18.5781 Q230.4375,18.5781 229.75,19.6563 Q229.0625,20.7188 229.0625,22.8125 Q229.0625,24.9063 229.75,25.9844 Q230.4375,27.0469 231.7813,27.0469 Q232.4063,27.0469 233,26.7813 Q233.5938,26.5 234.2188,25.9219 L234.2188,28.6406 Z " fill="#000000"/><text fill="#000000" font-family="sans-serif" font-size="14" lengthAdjust="spacing" textLength="45" x="251.75" y="27.8467">Coffee</text><line style="stroke:#181818;stroke-width:0.5;" x1="187" x2="329" y1="39" y2="39"/><line style="stroke:#181818;stroke-width:0.5;" x1="187" x2="329" y1="47" y2="47"/><ellipse cx="197" cy="60.6484" fill="#84BE84" rx="3" ry="3" style="stroke:#038048;stroke-width:1.0;"/><text fill="#000000" font-family="sans-serif" font-size="14" lengthAdjust="spacing" textLength="118" x="206" y="63.9951">getName():String</text><ellipse cx="197" cy="76.9453" fill="#84BE84" rx="3" ry="3" style="stroke:#038048;stroke-width:1.0;"/><text fill="#000000" font-family="sans-serif" font-size="14" lengthAdjust="spacing" textLength="95" x="206" y="80.292">addMilk():vold</text><ellipse cx="197" cy="93.2422" fill="#84BE84" rx="3" ry="3" style="stroke:#038048;stroke-width:1.0;"/><text fill="#000000" font-family="sans-serif" font-size="14" lengthAdjust="spacing" textLength="109" x="206" y="96.5889">addSugar():vold</text></g><g id="elem_SimpleCoffeeFactory"><rect codeLine="17" fill="#F1F1F1" height="64.2969" id="SimpleCoffeeFactory" rx="2.5" ry="2.5" style="stroke:#181818;stroke-width:0.5;" width="249" x="365.5" y="181"/><ellipse cx="415.25" cy="197" fill="#ADD1B2" rx="11" ry="11" style="stroke:#181818;stroke-width:1.0;"/><path d="M418.2188,202.6406 Q417.6406,202.9375 417,203.0781 Q416.3594,203.2344 415.6563,203.2344 Q413.1563,203.2344 411.8281,201.5938 Q410.5156,199.9375 410.5156,196.8125 Q410.5156,193.6875 411.8281,192.0313 Q413.1563,190.375 415.6563,190.375 Q416.3594,190.375 417,190.5313 Q417.6563,190.6875 418.2188,190.9844 L418.2188,193.7031 Q417.5938,193.125 417,192.8594 Q416.4063,192.5781 415.7813,192.5781 Q414.4375,192.5781 413.75,193.6563 Q413.0625,194.7188 413.0625,196.8125 Q413.0625,198.9063 413.75,199.9844 Q414.4375,201.0469 415.7813,201.0469 Q416.4063,201.0469 417,200.7813 Q417.5938,200.5 418.2188,199.9219 L418.2188,202.6406 Z " fill="#000000"/><text fill="#000000" font-family="sans-serif" font-size="14" lengthAdjust="spacing" textLength="141" x="435.75" y="201.8467">SimpleCoffeeFactory</text><line style="stroke:#181818;stroke-width:0.5;" x1="366.5" x2="613.5" y1="213" y2="213"/><line style="stroke:#181818;stroke-width:0.5;" x1="366.5" x2="613.5" y1="221" y2="221"/><ellipse cx="376.5" cy="234.6484" fill="#84BE84" rx="3" ry="3" style="stroke:#038048;stroke-width:1.0;"/><text fill="#000000" font-family="sans-serif" font-size="14" lengthAdjust="spacing" textLength="223" x="385.5" y="237.9951">createCoffee(String type):Coffee</text></g><g id="elem_GMN6"><path d="M263.5,322 L263.5,468.1953 A0,0 0 0 0 263.5,468.1953 L540.5,468.1953 A0,0 0 0 0 540.5,468.1953 L540.5,332 L530.5,322 L441.231,322 L474.672,245.354 L433.231,322 L263.5,322 A0,0 0 0 0 263.5,322 " fill="#FEFFDD" style="stroke:#181818;stroke-width:0.5;"/><path d="M530.5,322 L530.5,332 L540.5,332 L530.5,322 " fill="#FEFFDD" style="stroke:#181818;stroke-width:0.5;"/><text fill="#000000" font-family="sans-serif" font-size="13" lengthAdjust="spacing" textLength="256" x="269.5" y="339.0669">public Coffee createCoffee(String type){</text><text fill="#000000" font-family="sans-serif" font-size="13" lengthAdjust="spacing" textLength="129" x="293.5" y="354.1997">Coffee coffee = null;</text><text fill="#000000" font-family="sans-serif" font-size="13" lengthAdjust="spacing" textLength="183" x="293.5" y="369.3325">if ("american".equals(type)){</text><text fill="#000000" font-family="sans-serif" font-size="13" lengthAdjust="spacing" textLength="203" x="309.5" y="384.4653">coffee=new AmericanoCoffee();</text><text fill="#000000" font-family="sans-serif" font-size="13" lengthAdjust="spacing" textLength="190" x="293.5" y="399.5981">}else if ("latte".equals(type)){</text><text fill="#000000" font-family="sans-serif" font-size="13" lengthAdjust="spacing" textLength="167" x="309.5" y="414.731">coffee=new LatteCoffee();</text><text fill="#000000" font-family="sans-serif" font-size="13" lengthAdjust="spacing" textLength="8" x="293.5" y="429.8638">}</text><text fill="#000000" font-family="sans-serif" font-size="13" lengthAdjust="spacing" textLength="86" x="293.5" y="444.9966">return coffee;</text><text fill="#000000" font-family="sans-serif" font-size="13" lengthAdjust="spacing" textLength="8" x="269.5" y="460.1294">}</text></g><g id="elem_CoffeeStore"><rect codeLine="33" fill="#F1F1F1" height="64.2969" id="CoffeeStore" rx="2.5" ry="2.5" style="stroke:#181818;stroke-width:0.5;" width="242" x="576" y="363"/><ellipse cx="651.75" cy="379" fill="#ADD1B2" rx="11" ry="11" style="stroke:#181818;stroke-width:1.0;"/><path d="M654.7188,384.6406 Q654.1406,384.9375 653.5,385.0781 Q652.8594,385.2344 652.1563,385.2344 Q649.6563,385.2344 648.3281,383.5938 Q647.0156,381.9375 647.0156,378.8125 Q647.0156,375.6875 648.3281,374.0313 Q649.6563,372.375 652.1563,372.375 Q652.8594,372.375 653.5,372.5313 Q654.1563,372.6875 654.7188,372.9844 L654.7188,375.7031 Q654.0938,375.125 653.5,374.8594 Q652.9063,374.5781 652.2813,374.5781 Q650.9375,374.5781 650.25,375.6563 Q649.5625,376.7188 649.5625,378.8125 Q649.5625,380.9063 650.25,381.9844 Q650.9375,383.0469 652.2813,383.0469 Q652.9063,383.0469 653.5,382.7813 Q654.0938,382.5 654.7188,381.9219 L654.7188,384.6406 Z " fill="#000000"/><text fill="#000000" font-family="sans-serif" font-size="14" lengthAdjust="spacing" textLength="82" x="672.25" y="383.8467">CoffeeStore</text><line style="stroke:#181818;stroke-width:0.5;" x1="577" x2="817" y1="395" y2="395"/><line style="stroke:#181818;stroke-width:0.5;" x1="577" x2="817" y1="403" y2="403"/><ellipse cx="587" cy="416.6484" fill="#84BE84" rx="3" ry="3" style="stroke:#038048;stroke-width:1.0;"/><text fill="#000000" font-family="sans-serif" font-size="14" lengthAdjust="spacing" textLength="216" x="596" y="419.9951">orderCoffee(String type):Coffee</text></g><g id="elem_GMN10"><path d="M487.5,529 L487.5,660.0625 A0,0 0 0 0 487.5,660.0625 L906.5,660.0625 A0,0 0 0 0 906.5,660.0625 L906.5,539 L896.5,529 L701,529 L697,427.294 L693,529 L487.5,529 A0,0 0 0 0 487.5,529 " fill="#FEFFDD" style="stroke:#181818;stroke-width:0.5;"/><path d="M896.5,529 L896.5,539 L906.5,539 L896.5,529 " fill="#FEFFDD" style="stroke:#181818;stroke-width:0.5;"/><text fill="#000000" font-family="sans-serif" font-size="13" lengthAdjust="spacing" textLength="249" x="493.5" y="546.0669">public Coffee orderCoffee(String type){</text><text fill="#000000" font-family="sans-serif" font-size="13" lengthAdjust="spacing" textLength="374" x="517.5" y="561.1997">SimpleCoffeeFactory factory = new SimpleCoffeeFactory();</text><text fill="#000000" font-family="sans-serif" font-size="13" lengthAdjust="spacing" textLength="275" x="517.5" y="576.3325">Coffee coffee = factory.createCoffee(type);</text><text fill="#000000" font-family="sans-serif" font-size="13" lengthAdjust="spacing" textLength="64" x="517.5" y="591.4653">// &#28155;&#21152;&#37197;&#26009;</text><text fill="#000000" font-family="sans-serif" font-size="13" lengthAdjust="spacing" textLength="105" x="517.5" y="606.5981">coffee.addMilk();</text><text fill="#000000" font-family="sans-serif" font-size="13" lengthAdjust="spacing" textLength="119" x="517.5" y="621.731">coffee.addSugar();</text><text fill="#000000" font-family="sans-serif" font-size="13" lengthAdjust="spacing" textLength="86" x="517.5" y="636.8638">return coffee;</text><text fill="#000000" font-family="sans-serif" font-size="13" lengthAdjust="spacing" textLength="8" x="493.5" y="651.9966">}</text></g><g id="link_SimpleCoffeeFactory_CoffeeStore"><path codeLine="48" d="M530.5846,249.2911 C568.4616,282.2281 623.157,329.789 661.01,362.704 " fill="none" id="SimpleCoffeeFactory-backto-CoffeeStore" style="stroke:#181818;stroke-width:1.0;stroke-dasharray:7.0,7.0;"/><polygon fill="#181818" points="526.057,245.354,530.2237,254.2781,529.83,248.6349,535.4731,248.2413,526.057,245.354" style="stroke:#181818;stroke-width:1.0;"/><text fill="#000000" font-family="sans-serif" font-size="13" lengthAdjust="spacing" textLength="26" x="575" y="288.0669">&#20381;&#36182;</text></g><g id="link_Coffee_SimpleCoffeeFactory"><path codeLine="49" d="M333.8521,107.3405 C371.1641,132.3485 410.872,158.964 443.713,180.976 " fill="none" id="Coffee-backto-SimpleCoffeeFactory" style="stroke:#181818;stroke-width:1.0;stroke-dasharray:7.0,7.0;"/><polygon fill="#181818" points="328.868,104,334.1171,112.3335,333.0214,106.7838,338.5711,105.6881,328.868,104" style="stroke:#181818;stroke-width:1.0;"/><text fill="#000000" font-family="sans-serif" font-size="13" lengthAdjust="spacing" textLength="26" x="395" y="147.0669">&#20381;&#36182;</text></g><g id="link_Coffee_LatteCoffee"><path codeLine="50" d="M189.7325,115.8047 C160.9455,140.8127 140.051,158.964 114.713,180.976 " fill="none" id="Coffee-backto-LatteCoffee" style="stroke:#181818;stroke-width:1.0;"/><polygon fill="none" points="203.321,104,185.7975,111.2752,193.6674,120.3342,203.321,104" style="stroke:#181818;stroke-width:1.0;"/><text fill="#000000" font-family="sans-serif" font-size="13" lengthAdjust="spacing" textLength="26" x="170" y="147.0669">&#32487;&#25215;</text></g><g id="link_Coffee_AmericanCoffee"><path codeLine="51" d="M258,122 C258,147.008 258,158.964 258,180.976 " fill="none" id="Coffee-backto-AmericanCoffee" style="stroke:#181818;stroke-width:1.0;"/><polygon fill="none" points="258,104,252,122,264,122,258,104" style="stroke:#181818;stroke-width:1.0;"/><text fill="#000000" font-family="sans-serif" font-size="13" lengthAdjust="spacing" textLength="26" x="259" y="147.0669">&#32487;&#25215;</text></g></g></svg>