<?xml version="1.0" encoding="us-ascii" standalone="no"?><svg xmlns="http://www.w3.org/2000/svg" xmlns:xlink="http://www.w3.org/1999/xlink" contentStyleType="text/css" height="581px" preserveAspectRatio="none" style="width:572px;height:581px;background:#FFFFFF;" version="1.1" viewBox="0 0 572 581" width="572px" zoomAndPan="magnify"><defs/><g><g id="elem_Coffee"><rect codeLine="2" fill="#F1F1F1" height="96.8906" id="Coffee" rx="2.5" ry="2.5" style="stroke:#181818;stroke-width:0.5;" width="144" x="197.5" y="7"/><ellipse cx="242.75" cy="23" fill="#A9DCDF" rx="11" ry="11" style="stroke:#181818;stroke-width:1.0;"/><path d="M242.8594,18.3438 L241.7031,23.4219 L244.0313,23.4219 L242.8594,18.3438 Z M241.375,16.1094 L244.3594,16.1094 L247.7188,28.5 L245.2656,28.5 L244.5,25.4375 L241.2188,25.4375 L240.4688,28.5 L238.0313,28.5 L241.375,16.1094 Z " fill="#000000"/><text fill="#000000" font-family="sans-serif" font-size="14" font-style="italic" lengthAdjust="spacing" textLength="45" x="263.25" y="27.8467">Coffee</text><line style="stroke:#181818;stroke-width:0.5;" x1="198.5" x2="340.5" y1="39" y2="39"/><line style="stroke:#181818;stroke-width:0.5;" x1="198.5" x2="340.5" y1="47" y2="47"/><ellipse cx="208.5" cy="60.6484" fill="#84BE84" rx="3" ry="3" style="stroke:#038048;stroke-width:1.0;"/><text fill="#000000" font-family="sans-serif" font-size="14" lengthAdjust="spacing" textLength="118" x="217.5" y="63.9951">getName():String</text><ellipse cx="208.5" cy="76.9453" fill="#84BE84" rx="3" ry="3" style="stroke:#038048;stroke-width:1.0;"/><text fill="#000000" font-family="sans-serif" font-size="14" lengthAdjust="spacing" textLength="95" x="217.5" y="80.292">addMilk():vold</text><ellipse cx="208.5" cy="93.2422" fill="#84BE84" rx="3" ry="3" style="stroke:#038048;stroke-width:1.0;"/><text fill="#000000" font-family="sans-serif" font-size="14" lengthAdjust="spacing" textLength="109" x="217.5" y="96.5889">addSugar():vold</text></g><g id="elem_AmericanCoffee"><rect codeLine="8" fill="#F1F1F1" height="64.2969" id="AmericanCoffee" rx="2.5" ry="2.5" style="stroke:#181818;stroke-width:0.5;" width="144" x="13.5" y="275"/><ellipse cx="29.85" cy="291" fill="#ADD1B2" rx="11" ry="11" style="stroke:#181818;stroke-width:1.0;"/><path d="M32.8188,296.6406 Q32.2406,296.9375 31.6,297.0781 Q30.9594,297.2344 30.2563,297.2344 Q27.7563,297.2344 26.4281,295.5938 Q25.1156,293.9375 25.1156,290.8125 Q25.1156,287.6875 26.4281,286.0313 Q27.7563,284.375 30.2563,284.375 Q30.9594,284.375 31.6,284.5313 Q32.2563,284.6875 32.8188,284.9844 L32.8188,287.7031 Q32.1938,287.125 31.6,286.8594 Q31.0063,286.5781 30.3813,286.5781 Q29.0375,286.5781 28.35,287.6563 Q27.6625,288.7188 27.6625,290.8125 Q27.6625,292.9063 28.35,293.9844 Q29.0375,295.0469 30.3813,295.0469 Q31.0063,295.0469 31.6,294.7813 Q32.1938,294.5 32.8188,293.9219 L32.8188,296.6406 Z " fill="#000000"/><text fill="#000000" font-family="sans-serif" font-size="14" lengthAdjust="spacing" textLength="109" x="44.15" y="295.8467">AmericanCoffee</text><line style="stroke:#181818;stroke-width:0.5;" x1="14.5" x2="156.5" y1="307" y2="307"/><line style="stroke:#181818;stroke-width:0.5;" x1="14.5" x2="156.5" y1="315" y2="315"/><ellipse cx="24.5" cy="328.6484" fill="#84BE84" rx="3" ry="3" style="stroke:#038048;stroke-width:1.0;"/><text fill="#000000" font-family="sans-serif" font-size="14" lengthAdjust="spacing" textLength="118" x="33.5" y="331.9951">getName():String</text></g><g id="elem_LatteCoffee"><rect codeLine="12" fill="#F1F1F1" height="64.2969" id="LatteCoffee" rx="2.5" ry="2.5" style="stroke:#181818;stroke-width:0.5;" width="144" x="390.5" y="275"/><ellipse cx="420.35" cy="291" fill="#ADD1B2" rx="11" ry="11" style="stroke:#181818;stroke-width:1.0;"/><path d="M423.3188,296.6406 Q422.7406,296.9375 422.1,297.0781 Q421.4594,297.2344 420.7563,297.2344 Q418.2563,297.2344 416.9281,295.5938 Q415.6156,293.9375 415.6156,290.8125 Q415.6156,287.6875 416.9281,286.0313 Q418.2563,284.375 420.7563,284.375 Q421.4594,284.375 422.1,284.5313 Q422.7563,284.6875 423.3188,284.9844 L423.3188,287.7031 Q422.6938,287.125 422.1,286.8594 Q421.5063,286.5781 420.8813,286.5781 Q419.5375,286.5781 418.85,287.6563 Q418.1625,288.7188 418.1625,290.8125 Q418.1625,292.9063 418.85,293.9844 Q419.5375,295.0469 420.8813,295.0469 Q421.5063,295.0469 422.1,294.7813 Q422.6938,294.5 423.3188,293.9219 L423.3188,296.6406 Z " fill="#000000"/><text fill="#000000" font-family="sans-serif" font-size="14" lengthAdjust="spacing" textLength="79" x="437.65" y="295.8467">LatteCoffee</text><line style="stroke:#181818;stroke-width:0.5;" x1="391.5" x2="533.5" y1="307" y2="307"/><line style="stroke:#181818;stroke-width:0.5;" x1="391.5" x2="533.5" y1="315" y2="315"/><ellipse cx="401.5" cy="328.6484" fill="#84BE84" rx="3" ry="3" style="stroke:#038048;stroke-width:1.0;"/><text fill="#000000" font-family="sans-serif" font-size="14" lengthAdjust="spacing" textLength="118" x="410.5" y="331.9951">getName():String</text></g><g id="elem_CoffeeStore"><rect codeLine="17" fill="#F1F1F1" height="64.2969" id="CoffeeStore" rx="2.5" ry="2.5" style="stroke:#181818;stroke-width:0.5;" width="242" x="148.5" y="181"/><ellipse cx="224.25" cy="197" fill="#ADD1B2" rx="11" ry="11" style="stroke:#181818;stroke-width:1.0;"/><path d="M227.2188,202.6406 Q226.6406,202.9375 226,203.0781 Q225.3594,203.2344 224.6563,203.2344 Q222.1563,203.2344 220.8281,201.5938 Q219.5156,199.9375 219.5156,196.8125 Q219.5156,193.6875 220.8281,192.0313 Q222.1563,190.375 224.6563,190.375 Q225.3594,190.375 226,190.5313 Q226.6563,190.6875 227.2188,190.9844 L227.2188,193.7031 Q226.5938,193.125 226,192.8594 Q225.4063,192.5781 224.7813,192.5781 Q223.4375,192.5781 222.75,193.6563 Q222.0625,194.7188 222.0625,196.8125 Q222.0625,198.9063 222.75,199.9844 Q223.4375,201.0469 224.7813,201.0469 Q225.4063,201.0469 226,200.7813 Q226.5938,200.5 227.2188,199.9219 L227.2188,202.6406 Z " fill="#000000"/><text fill="#000000" font-family="sans-serif" font-size="14" lengthAdjust="spacing" textLength="82" x="244.75" y="201.8467">CoffeeStore</text><line style="stroke:#181818;stroke-width:0.5;" x1="149.5" x2="389.5" y1="213" y2="213"/><line style="stroke:#181818;stroke-width:0.5;" x1="149.5" x2="389.5" y1="221" y2="221"/><ellipse cx="159.5" cy="234.6484" fill="#84BE84" rx="3" ry="3" style="stroke:#038048;stroke-width:1.0;"/><text fill="#000000" font-family="sans-serif" font-size="14" lengthAdjust="spacing" textLength="216" x="168.5" y="237.9951">orderCoffee(String type):Coffee</text></g><g id="elem_CoffeeFactory"><rect codeLine="22" fill="#F1F1F1" height="64.2969" id="CoffeeFactory" rx="2.5" ry="2.5" style="stroke:#181818;stroke-width:0.5;" width="249" x="146" y="369"/><ellipse cx="218.75" cy="385" fill="#B4A7E5" rx="11" ry="11" style="stroke:#181818;stroke-width:1.0;"/><path d="M214.6719,380.7656 L214.6719,378.6094 L222.0625,378.6094 L222.0625,380.7656 L219.5938,380.7656 L219.5938,388.8438 L222.0625,388.8438 L222.0625,391 L214.6719,391 L214.6719,388.8438 L217.1406,388.8438 L217.1406,380.7656 L214.6719,380.7656 Z " fill="#000000"/><text fill="#000000" font-family="sans-serif" font-size="14" font-style="italic" lengthAdjust="spacing" textLength="95" x="239.25" y="389.8467">CoffeeFactory</text><line style="stroke:#181818;stroke-width:0.5;" x1="147" x2="394" y1="401" y2="401"/><line style="stroke:#181818;stroke-width:0.5;" x1="147" x2="394" y1="409" y2="409"/><ellipse cx="157" cy="422.6484" fill="#84BE84" rx="3" ry="3" style="stroke:#038048;stroke-width:1.0;"/><text fill="#000000" font-family="sans-serif" font-size="14" lengthAdjust="spacing" textLength="223" x="166" y="425.9951">createCoffee(String type):Coffee</text></g><g id="elem_LatteCoffeeFactory"><rect codeLine="27" fill="#F1F1F1" height="64.2969" id="LatteCoffeeFactory" rx="2.5" ry="2.5" style="stroke:#181818;stroke-width:0.5;" width="249" x="316" y="510"/><ellipse cx="371.75" cy="526" fill="#ADD1B2" rx="11" ry="11" style="stroke:#181818;stroke-width:1.0;"/><path d="M374.7188,531.6406 Q374.1406,531.9375 373.5,532.0781 Q372.8594,532.2344 372.1563,532.2344 Q369.6563,532.2344 368.3281,530.5938 Q367.0156,528.9375 367.0156,525.8125 Q367.0156,522.6875 368.3281,521.0313 Q369.6563,519.375 372.1563,519.375 Q372.8594,519.375 373.5,519.5313 Q374.1563,519.6875 374.7188,519.9844 L374.7188,522.7031 Q374.0938,522.125 373.5,521.8594 Q372.9063,521.5781 372.2813,521.5781 Q370.9375,521.5781 370.25,522.6563 Q369.5625,523.7188 369.5625,525.8125 Q369.5625,527.9063 370.25,528.9844 Q370.9375,530.0469 372.2813,530.0469 Q372.9063,530.0469 373.5,529.7813 Q374.0938,529.5 374.7188,528.9219 L374.7188,531.6406 Z " fill="#000000"/><text fill="#000000" font-family="sans-serif" font-size="14" lengthAdjust="spacing" textLength="129" x="392.25" y="530.8467">LatteCoffeeFactory</text><line style="stroke:#181818;stroke-width:0.5;" x1="317" x2="564" y1="542" y2="542"/><line style="stroke:#181818;stroke-width:0.5;" x1="317" x2="564" y1="550" y2="550"/><ellipse cx="327" cy="563.6484" fill="#84BE84" rx="3" ry="3" style="stroke:#038048;stroke-width:1.0;"/><text fill="#000000" font-family="sans-serif" font-size="14" lengthAdjust="spacing" textLength="223" x="336" y="566.9951">createCoffee(String type):Coffee</text></g><g id="elem_AmericanCoffeeFactory"><rect codeLine="31" fill="#F1F1F1" height="64.2969" id="AmericanCoffeeFactory" rx="2.5" ry="2.5" style="stroke:#181818;stroke-width:0.5;" width="249" x="7" y="510"/><ellipse cx="48.1" cy="526" fill="#ADD1B2" rx="11" ry="11" style="stroke:#181818;stroke-width:1.0;"/><path d="M51.0688,531.6406 Q50.4906,531.9375 49.85,532.0781 Q49.2094,532.2344 48.5063,532.2344 Q46.0063,532.2344 44.6781,530.5938 Q43.3656,528.9375 43.3656,525.8125 Q43.3656,522.6875 44.6781,521.0313 Q46.0063,519.375 48.5063,519.375 Q49.2094,519.375 49.85,519.5313 Q50.5063,519.6875 51.0688,519.9844 L51.0688,522.7031 Q50.4438,522.125 49.85,521.8594 Q49.2563,521.5781 48.6313,521.5781 Q47.2875,521.5781 46.6,522.6563 Q45.9125,523.7188 45.9125,525.8125 Q45.9125,527.9063 46.6,528.9844 Q47.2875,530.0469 48.6313,530.0469 Q49.2563,530.0469 49.85,529.7813 Q50.4438,529.5 51.0688,528.9219 L51.0688,531.6406 Z " fill="#000000"/><text fill="#000000" font-family="sans-serif" font-size="14" lengthAdjust="spacing" textLength="159" x="67.9" y="530.8467">AmericanCoffeeFactory</text><line style="stroke:#181818;stroke-width:0.5;" x1="8" x2="255" y1="542" y2="542"/><line style="stroke:#181818;stroke-width:0.5;" x1="8" x2="255" y1="550" y2="550"/><ellipse cx="18" cy="563.6484" fill="#84BE84" rx="3" ry="3" style="stroke:#038048;stroke-width:1.0;"/><text fill="#000000" font-family="sans-serif" font-size="14" lengthAdjust="spacing" textLength="223" x="27" y="566.9951">createCoffee(String type):Coffee</text></g><g id="link_Coffee_LatteCoffee"><path codeLine="37" d="M346.8164,115.5823 C372.3604,137.0103 386.808,152.36 407.5,181 C428.466,210.02 443.834,248.295 452.913,274.81 " fill="none" id="Coffee-backto-LatteCoffee" style="stroke:#181818;stroke-width:1.0;"/><polygon fill="none" points="333.026,104.014,342.9603,120.1791,350.6725,110.9855,333.026,104.014" style="stroke:#181818;stroke-width:1.0;"/><text fill="#000000" font-family="sans-serif" font-size="13" lengthAdjust="spacing" textLength="26" x="383.5" y="147.0669">&#32487;&#25215;</text></g><g id="link_Coffee_AmericanCoffee"><path codeLine="38" d="M189.5748,115.5969 C163.9728,136.7619 150.052,151.985 130.5,181 C111.037,209.882 98.8784,248.182 92.1784,274.741 " fill="none" id="Coffee-backto-AmericanCoffee" style="stroke:#181818;stroke-width:1.0;"/><polygon fill="none" points="203.448,104.128,185.7519,110.9725,193.3978,120.2213,203.448,104.128" style="stroke:#181818;stroke-width:1.0;"/><text fill="#000000" font-family="sans-serif" font-size="13" lengthAdjust="spacing" textLength="26" x="169.5" y="147.0669">&#32487;&#25215;</text></g><g id="link_LatteCoffee_LatteCoffeeFactory"><path codeLine="40" d="M458.9689,345.3964 C454.7579,389.9904 447.659,465.179 443.455,509.7032 " fill="none" id="LatteCoffee-backto-LatteCoffeeFactory" style="stroke:#181818;stroke-width:1.0;stroke-dasharray:7.0,7.0;"/><polygon fill="#181818" points="459.533,339.423,454.7046,348.0071,459.0629,344.4009,462.6692,348.7592,459.533,339.423" style="stroke:#181818;stroke-width:1.0;"/><text fill="#000000" font-family="sans-serif" font-size="13" lengthAdjust="spacing" textLength="26" x="457.5" y="405.5669">&#20381;&#36182;</text></g><g id="link_AmericanCoffee_AmericanCoffeeFactory"><path codeLine="41" d="M88.3615,345.0178 C90.6056,370.4458 94.09,401.293 100.5,433 C105.7957,459.195 114.301,488.2834 121.065,509.6664 " fill="none" id="AmericanCoffee-backto-AmericanCoffeeFactory" style="stroke:#181818;stroke-width:1.0;stroke-dasharray:7.0,7.0;"/><polygon fill="#181818" points="87.834,339.041,84.6407,348.3578,88.2736,344.0216,92.6097,347.6545,87.834,339.041" style="stroke:#181818;stroke-width:1.0;"/><text fill="#000000" font-family="sans-serif" font-size="13" lengthAdjust="spacing" textLength="26" x="101.5" y="405.5669">&#20381;&#36182;</text></g><g id="link_Coffee_CoffeeStore"><path codeLine="42" d="M269.5,110 C269.5,135.008 269.5,158.964 269.5,180.976 " fill="none" id="Coffee-backto-CoffeeStore" style="stroke:#181818;stroke-width:1.0;stroke-dasharray:7.0,7.0;"/><polygon fill="#181818" points="269.5,104,265.5,113,269.5,109,273.5,113,269.5,104" style="stroke:#181818;stroke-width:1.0;"/><text fill="#000000" font-family="sans-serif" font-size="13" lengthAdjust="spacing" textLength="26" x="270.5" y="147.0669">&#20381;&#36182;</text></g><g id="link_CoffeeFactory_CoffeeStore"><path codeLine="43" d="M248.373,363.4672 C243.615,354.2152 241.935,349.166 239.5,339 C232.874,311.338 233.056,302.705 239.5,275 C241.853,264.885 246.133,254.515 250.737,245.262 " fill="none" id="CoffeeFactory-backto-CoffeeStore" style="stroke:#181818;stroke-width:1.0;stroke-dasharray:7.0,7.0;"/><polygon fill="#181818" points="251.117,368.803,250.5582,358.97,248.8303,364.3565,243.4438,362.6287,251.117,368.803" style="stroke:#181818;stroke-width:1.0;"/><text fill="#000000" font-family="sans-serif" font-size="13" lengthAdjust="spacing" textLength="26" x="240.5" y="311.5669">&#20381;&#36182;</text></g><g id="link_CoffeeFactory_AmericanCoffeeFactory"><path codeLine="45" d="M226.5781,445.9219 C203.6851,468.8149 185.458,487.0421 162.59,509.9098 " fill="none" id="CoffeeFactory-backto-AmericanCoffeeFactory" style="stroke:#181818;stroke-width:1.0;stroke-dasharray:7.0,7.0;"/><polygon fill="none" points="239.306,433.194,222.3354,441.6793,230.8207,450.1646,239.306,433.194" style="stroke:#181818;stroke-width:1.0;"/><text fill="#000000" font-family="sans-serif" font-size="13" lengthAdjust="spacing" textLength="26" x="210.5" y="476.0669">&#23454;&#29616;</text></g><g id="link_CoffeeFactory_LatteCoffeeFactory"><path codeLine="46" d="M322.5858,444.588 C350.5838,467.481 374.508,487.0421 402.476,509.9098 " fill="none" id="CoffeeFactory-backto-LatteCoffeeFactory" style="stroke:#181818;stroke-width:1.0;stroke-dasharray:7.0,7.0;"/><polygon fill="none" points="308.651,433.194,318.7878,449.2329,326.3837,439.9431,308.651,433.194" style="stroke:#181818;stroke-width:1.0;"/><text fill="#000000" font-family="sans-serif" font-size="13" lengthAdjust="spacing" textLength="26" x="367.5" y="476.0669">&#23454;&#29616;</text></g></g></svg>