<?xml version="1.0" encoding="us-ascii" standalone="no"?><svg xmlns="http://www.w3.org/2000/svg" xmlns:xlink="http://www.w3.org/1999/xlink" contentStyleType="text/css" height="426px" preserveAspectRatio="none" style="width:871px;height:426px;background:#FFFFFF;" version="1.1" viewBox="0 0 871 426" width="871px" zoomAndPan="magnify"><defs/><g><g id="elem_Coffee"><rect codeLine="3" fill="#F1F1F1" height="96.8906" id="Coffee" rx="2.5" ry="2.5" style="stroke:#181818;stroke-width:0.5;" width="144" x="288" y="7"/><ellipse cx="333.25" cy="23" fill="#A9DCDF" rx="11" ry="11" style="stroke:#181818;stroke-width:1.0;"/><path d="M333.3594,18.3438 L332.2031,23.4219 L334.5313,23.4219 L333.3594,18.3438 Z M331.875,16.1094 L334.8594,16.1094 L338.2188,28.5 L335.7656,28.5 L335,25.4375 L331.7188,25.4375 L330.9688,28.5 L328.5313,28.5 L331.875,16.1094 Z " fill="#000000"/><text fill="#000000" font-family="sans-serif" font-size="14" font-style="italic" lengthAdjust="spacing" textLength="45" x="353.75" y="27.8467">Coffee</text><line style="stroke:#181818;stroke-width:0.5;" x1="289" x2="431" y1="39" y2="39"/><line style="stroke:#181818;stroke-width:0.5;" x1="289" x2="431" y1="47" y2="47"/><ellipse cx="299" cy="60.6484" fill="#84BE84" rx="3" ry="3" style="stroke:#038048;stroke-width:1.0;"/><text fill="#000000" font-family="sans-serif" font-size="14" lengthAdjust="spacing" textLength="118" x="308" y="63.9951">getName():String</text><ellipse cx="299" cy="76.9453" fill="#84BE84" rx="3" ry="3" style="stroke:#038048;stroke-width:1.0;"/><text fill="#000000" font-family="sans-serif" font-size="14" lengthAdjust="spacing" textLength="95" x="308" y="80.292">addMilk():vold</text><ellipse cx="299" cy="93.2422" fill="#84BE84" rx="3" ry="3" style="stroke:#038048;stroke-width:1.0;"/><text fill="#000000" font-family="sans-serif" font-size="14" lengthAdjust="spacing" textLength="109" x="308" y="96.5889">addSugar():vold</text></g><g id="elem_LatteCoffee"><rect codeLine="9" fill="#F1F1F1" height="64.2969" id="LatteCoffee" rx="2.5" ry="2.5" style="stroke:#181818;stroke-width:0.5;" width="144" x="7" y="189.5"/><ellipse cx="36.85" cy="205.5" fill="#ADD1B2" rx="11" ry="11" style="stroke:#181818;stroke-width:1.0;"/><path d="M39.8188,211.1406 Q39.2406,211.4375 38.6,211.5781 Q37.9594,211.7344 37.2563,211.7344 Q34.7563,211.7344 33.4281,210.0938 Q32.1156,208.4375 32.1156,205.3125 Q32.1156,202.1875 33.4281,200.5313 Q34.7563,198.875 37.2563,198.875 Q37.9594,198.875 38.6,199.0313 Q39.2563,199.1875 39.8188,199.4844 L39.8188,202.2031 Q39.1938,201.625 38.6,201.3594 Q38.0063,201.0781 37.3813,201.0781 Q36.0375,201.0781 35.35,202.1563 Q34.6625,203.2188 34.6625,205.3125 Q34.6625,207.4063 35.35,208.4844 Q36.0375,209.5469 37.3813,209.5469 Q38.0063,209.5469 38.6,209.2813 Q39.1938,209 39.8188,208.4219 L39.8188,211.1406 Z " fill="#000000"/><text fill="#000000" font-family="sans-serif" font-size="14" lengthAdjust="spacing" textLength="79" x="54.15" y="210.3467">LatteCoffee</text><line style="stroke:#181818;stroke-width:0.5;" x1="8" x2="150" y1="221.5" y2="221.5"/><line style="stroke:#181818;stroke-width:0.5;" x1="8" x2="150" y1="229.5" y2="229.5"/><ellipse cx="18" cy="243.1484" fill="#84BE84" rx="3" ry="3" style="stroke:#038048;stroke-width:1.0;"/><text fill="#000000" font-family="sans-serif" font-size="14" lengthAdjust="spacing" textLength="118" x="27" y="246.4951">getName():String</text></g><g id="elem_AmericanCoffee"><rect codeLine="13" fill="#F1F1F1" height="64.2969" id="AmericanCoffee" rx="2.5" ry="2.5" style="stroke:#181818;stroke-width:0.5;" width="144" x="548" y="189.5"/><ellipse cx="564.35" cy="205.5" fill="#ADD1B2" rx="11" ry="11" style="stroke:#181818;stroke-width:1.0;"/><path d="M567.3188,211.1406 Q566.7406,211.4375 566.1,211.5781 Q565.4594,211.7344 564.7563,211.7344 Q562.2563,211.7344 560.9281,210.0938 Q559.6156,208.4375 559.6156,205.3125 Q559.6156,202.1875 560.9281,200.5313 Q562.2563,198.875 564.7563,198.875 Q565.4594,198.875 566.1,199.0313 Q566.7563,199.1875 567.3188,199.4844 L567.3188,202.2031 Q566.6938,201.625 566.1,201.3594 Q565.5063,201.0781 564.8813,201.0781 Q563.5375,201.0781 562.85,202.1563 Q562.1625,203.2188 562.1625,205.3125 Q562.1625,207.4063 562.85,208.4844 Q563.5375,209.5469 564.8813,209.5469 Q565.5063,209.5469 566.1,209.2813 Q566.6938,209 567.3188,208.4219 L567.3188,211.1406 Z " fill="#000000"/><text fill="#000000" font-family="sans-serif" font-size="14" lengthAdjust="spacing" textLength="109" x="578.65" y="210.3467">AmericanCoffee</text><line style="stroke:#181818;stroke-width:0.5;" x1="549" x2="691" y1="221.5" y2="221.5"/><line style="stroke:#181818;stroke-width:0.5;" x1="549" x2="691" y1="229.5" y2="229.5"/><ellipse cx="559" cy="243.1484" fill="#84BE84" rx="3" ry="3" style="stroke:#038048;stroke-width:1.0;"/><text fill="#000000" font-family="sans-serif" font-size="14" lengthAdjust="spacing" textLength="118" x="568" y="246.4951">getName():String</text></g><g id="elem_Dessert"><rect codeLine="17" fill="#F1F1F1" height="64.2969" id="Dessert" rx="2.5" ry="2.5" style="stroke:#181818;stroke-width:0.5;" width="106" x="571" y="23.5"/><ellipse cx="594.55" cy="39.5" fill="#A9DCDF" rx="11" ry="11" style="stroke:#181818;stroke-width:1.0;"/><path d="M594.6594,34.8438 L593.5031,39.9219 L595.8313,39.9219 L594.6594,34.8438 Z M593.175,32.6094 L596.1594,32.6094 L599.5188,45 L597.0656,45 L596.3,41.9375 L593.0188,41.9375 L592.2688,45 L589.8313,45 L593.175,32.6094 Z " fill="#000000"/><text fill="#000000" font-family="sans-serif" font-size="14" font-style="italic" lengthAdjust="spacing" textLength="55" x="610.45" y="44.3467">Dessert</text><line style="stroke:#181818;stroke-width:0.5;" x1="572" x2="676" y1="55.5" y2="55.5"/><line style="stroke:#181818;stroke-width:0.5;" x1="572" x2="676" y1="63.5" y2="63.5"/><ellipse cx="582" cy="77.1484" fill="#84BE84" rx="3" ry="3" style="stroke:#038048;stroke-width:1.0;"/><text fill="#000000" font-family="sans-serif" font-size="14" lengthAdjust="spacing" textLength="80" x="591" y="80.4951">show():vold</text></g><g id="elem_Tiramisu"><rect codeLine="21" fill="#F1F1F1" height="64.2969" id="Tiramisu" rx="2.5" ry="2.5" style="stroke:#181818;stroke-width:0.5;" width="106" x="186" y="189.5"/><ellipse cx="208.2" cy="205.5" fill="#ADD1B2" rx="11" ry="11" style="stroke:#181818;stroke-width:1.0;"/><path d="M211.1688,211.1406 Q210.5906,211.4375 209.95,211.5781 Q209.3094,211.7344 208.6063,211.7344 Q206.1063,211.7344 204.7781,210.0938 Q203.4656,208.4375 203.4656,205.3125 Q203.4656,202.1875 204.7781,200.5313 Q206.1063,198.875 208.6063,198.875 Q209.3094,198.875 209.95,199.0313 Q210.6063,199.1875 211.1688,199.4844 L211.1688,202.2031 Q210.5438,201.625 209.95,201.3594 Q209.3563,201.0781 208.7313,201.0781 Q207.3875,201.0781 206.7,202.1563 Q206.0125,203.2188 206.0125,205.3125 Q206.0125,207.4063 206.7,208.4844 Q207.3875,209.5469 208.7313,209.5469 Q209.3563,209.5469 209.95,209.2813 Q210.5438,209 211.1688,208.4219 L211.1688,211.1406 Z " fill="#000000"/><text fill="#000000" font-family="sans-serif" font-size="14" lengthAdjust="spacing" textLength="58" x="223.8" y="210.3467">Tiramisu</text><line style="stroke:#181818;stroke-width:0.5;" x1="187" x2="291" y1="221.5" y2="221.5"/><line style="stroke:#181818;stroke-width:0.5;" x1="187" x2="291" y1="229.5" y2="229.5"/><ellipse cx="197" cy="243.1484" fill="#84BE84" rx="3" ry="3" style="stroke:#038048;stroke-width:1.0;"/><text fill="#000000" font-family="sans-serif" font-size="14" lengthAdjust="spacing" textLength="80" x="206" y="246.4951">show():vold</text></g><g id="elem_MatchaMousse"><rect codeLine="25" fill="#F1F1F1" height="64.2969" id="MatchaMousse" rx="2.5" ry="2.5" style="stroke:#181818;stroke-width:0.5;" width="137" x="727.5" y="189.5"/><ellipse cx="742.5" cy="205.5" fill="#ADD1B2" rx="11" ry="11" style="stroke:#181818;stroke-width:1.0;"/><path d="M745.4688,211.1406 Q744.8906,211.4375 744.25,211.5781 Q743.6094,211.7344 742.9063,211.7344 Q740.4063,211.7344 739.0781,210.0938 Q737.7656,208.4375 737.7656,205.3125 Q737.7656,202.1875 739.0781,200.5313 Q740.4063,198.875 742.9063,198.875 Q743.6094,198.875 744.25,199.0313 Q744.9063,199.1875 745.4688,199.4844 L745.4688,202.2031 Q744.8438,201.625 744.25,201.3594 Q743.6563,201.0781 743.0313,201.0781 Q741.6875,201.0781 741,202.1563 Q740.3125,203.2188 740.3125,205.3125 Q740.3125,207.4063 741,208.4844 Q741.6875,209.5469 743.0313,209.5469 Q743.6563,209.5469 744.25,209.2813 Q744.8438,209 745.4688,208.4219 L745.4688,211.1406 Z " fill="#000000"/><text fill="#000000" font-family="sans-serif" font-size="14" lengthAdjust="spacing" textLength="105" x="756.5" y="210.3467">MatchaMousse</text><line style="stroke:#181818;stroke-width:0.5;" x1="728.5" x2="863.5" y1="221.5" y2="221.5"/><line style="stroke:#181818;stroke-width:0.5;" x1="728.5" x2="863.5" y1="229.5" y2="229.5"/><ellipse cx="738.5" cy="243.1484" fill="#84BE84" rx="3" ry="3" style="stroke:#038048;stroke-width:1.0;"/><text fill="#000000" font-family="sans-serif" font-size="14" lengthAdjust="spacing" textLength="80" x="747.5" y="246.4951">show():vold</text></g><g id="elem_AmericanDessertFactory"><rect codeLine="29" fill="#F1F1F1" height="80.5938" id="AmericanDessertFactory" rx="2.5" ry="2.5" style="stroke:#181818;stroke-width:0.5;" width="201" x="519.5" y="339"/><ellipse cx="534.5" cy="355" fill="#B4A7E5" rx="11" ry="11" style="stroke:#181818;stroke-width:1.0;"/><path d="M530.4219,350.7656 L530.4219,348.6094 L537.8125,348.6094 L537.8125,350.7656 L535.3438,350.7656 L535.3438,358.8438 L537.8125,358.8438 L537.8125,361 L530.4219,361 L530.4219,358.8438 L532.8906,358.8438 L532.8906,350.7656 L530.4219,350.7656 Z " fill="#000000"/><text fill="#000000" font-family="sans-serif" font-size="14" font-style="italic" lengthAdjust="spacing" textLength="169" x="548.5" y="359.8467">AmericanDessertFactory</text><line style="stroke:#181818;stroke-width:0.5;" x1="520.5" x2="719.5" y1="371" y2="371"/><ellipse cx="530.5" cy="384.6484" fill="none" rx="3" ry="3" style="stroke:#038048;stroke-width:1.0;"/><text fill="#000000" font-family="sans-serif" font-size="14" lengthAdjust="spacing" textLength="139" x="539.5" y="387.9951">createCoffee:Coffee</text><ellipse cx="530.5" cy="400.9453" fill="none" rx="3" ry="3" style="stroke:#038048;stroke-width:1.0;"/><text fill="#000000" font-family="sans-serif" font-size="14" lengthAdjust="spacing" textLength="159" x="539.5" y="404.292">createDessert:Dessert</text><line style="stroke:#181818;stroke-width:0.5;" x1="520.5" x2="719.5" y1="411.5938" y2="411.5938"/></g><g id="elem_ItalyDessertFactory"><rect codeLine="34" fill="#F1F1F1" height="80.5938" id="ItalyDessertFactory" rx="2.5" ry="2.5" style="stroke:#181818;stroke-width:0.5;" width="185" x="146.5" y="339"/><ellipse cx="171.4" cy="355" fill="#ADD1B2" rx="11" ry="11" style="stroke:#181818;stroke-width:1.0;"/><path d="M174.3688,360.6406 Q173.7906,360.9375 173.15,361.0781 Q172.5094,361.2344 171.8063,361.2344 Q169.3063,361.2344 167.9781,359.5938 Q166.6656,357.9375 166.6656,354.8125 Q166.6656,351.6875 167.9781,350.0313 Q169.3063,348.375 171.8063,348.375 Q172.5094,348.375 173.15,348.5313 Q173.8063,348.6875 174.3688,348.9844 L174.3688,351.7031 Q173.7438,351.125 173.15,350.8594 Q172.5563,350.5781 171.9313,350.5781 Q170.5875,350.5781 169.9,351.6563 Q169.2125,352.7188 169.2125,354.8125 Q169.2125,356.9063 169.9,357.9844 Q170.5875,359.0469 171.9313,359.0469 Q172.5563,359.0469 173.15,358.7813 Q173.7438,358.5 174.3688,357.9219 L174.3688,360.6406 Z " fill="#000000"/><text fill="#000000" font-family="sans-serif" font-size="14" lengthAdjust="spacing" textLength="131" x="187.6" y="359.8467">ItalyDessertFactory</text><line style="stroke:#181818;stroke-width:0.5;" x1="147.5" x2="330.5" y1="371" y2="371"/><ellipse cx="157.5" cy="384.6484" fill="none" rx="3" ry="3" style="stroke:#038048;stroke-width:1.0;"/><text fill="#000000" font-family="sans-serif" font-size="14" lengthAdjust="spacing" textLength="139" x="166.5" y="387.9951">createCoffee:Coffee</text><ellipse cx="157.5" cy="400.9453" fill="none" rx="3" ry="3" style="stroke:#038048;stroke-width:1.0;"/><text fill="#000000" font-family="sans-serif" font-size="14" lengthAdjust="spacing" textLength="159" x="166.5" y="404.292">createDessert:Dessert</text><line style="stroke:#181818;stroke-width:0.5;" x1="147.5" x2="330.5" y1="411.5938" y2="411.5938"/></g><g id="elem_DessertFactory"><rect codeLine="39" fill="#F1F1F1" height="80.5938" id="DessertFactory" rx="2.5" ry="2.5" style="stroke:#181818;stroke-width:0.5;" width="185" x="327.5" y="181"/><ellipse cx="364.1" cy="197" fill="#B4A7E5" rx="11" ry="11" style="stroke:#181818;stroke-width:1.0;"/><path d="M360.0219,192.7656 L360.0219,190.6094 L367.4125,190.6094 L367.4125,192.7656 L364.9438,192.7656 L364.9438,200.8438 L367.4125,200.8438 L367.4125,203 L360.0219,203 L360.0219,200.8438 L362.4906,200.8438 L362.4906,192.7656 L360.0219,192.7656 Z " fill="#000000"/><text fill="#000000" font-family="sans-serif" font-size="14" font-style="italic" lengthAdjust="spacing" textLength="105" x="382.9" y="201.8467">DessertFactory</text><line style="stroke:#181818;stroke-width:0.5;" x1="328.5" x2="511.5" y1="213" y2="213"/><ellipse cx="338.5" cy="226.6484" fill="none" rx="3" ry="3" style="stroke:#038048;stroke-width:1.0;"/><text fill="#000000" font-family="sans-serif" font-size="14" lengthAdjust="spacing" textLength="139" x="347.5" y="229.9951">createCoffee:Coffee</text><ellipse cx="338.5" cy="242.9453" fill="none" rx="3" ry="3" style="stroke:#038048;stroke-width:1.0;"/><text fill="#000000" font-family="sans-serif" font-size="14" lengthAdjust="spacing" textLength="159" x="347.5" y="246.292">createDessert:Dessert</text><line style="stroke:#181818;stroke-width:0.5;" x1="328.5" x2="511.5" y1="253.5938" y2="253.5938"/></g><g id="link_Coffee_LatteCoffee"><path codeLine="44" d="M272.09,107.8071 C223.631,136.0891 176.449,163.626 132.479,189.288 " fill="none" id="Coffee-backto-LatteCoffee" style="stroke:#181818;stroke-width:1.0;"/><polygon fill="none" points="287.636,98.734,269.0656,102.6251,275.1143,112.9891,287.636,98.734" style="stroke:#181818;stroke-width:1.0;"/><text fill="#000000" font-family="sans-serif" font-size="13" lengthAdjust="spacing" textLength="26" x="221" y="147.0669">&#32487;&#25215;</text></g><g id="link_Coffee_AmericanCoffee"><path codeLine="45" d="M447.3033,111.5681 C491.4873,139.4381 531.667,164.782 570.837,189.489 " fill="none" id="Coffee-backto-AmericanCoffee" style="stroke:#181818;stroke-width:1.0;"/><polygon fill="none" points="432.079,101.965,444.1023,116.6429,450.5044,106.4933,432.079,101.965" style="stroke:#181818;stroke-width:1.0;"/><text fill="#000000" font-family="sans-serif" font-size="13" lengthAdjust="spacing" textLength="26" x="507" y="147.0669">&#32487;&#25215;</text></g><g id="link_Dessert_Tiramisu"><path codeLine="47" d="M553.9466,81.2528 C490.7776,103.9888 399.557,138.555 310,181 C304.137,183.779 298.088,186.835 292.11,189.978 " fill="none" id="Dessert-backto-Tiramisu" style="stroke:#181818;stroke-width:1.0;"/><polygon fill="none" points="570.883,75.157,551.9147,75.6073,555.9785,86.8983,570.883,75.157" style="stroke:#181818;stroke-width:1.0;"/><text fill="#000000" font-family="sans-serif" font-size="13" lengthAdjust="spacing" textLength="26" x="413" y="147.0669">&#32487;&#25215;</text></g><g id="link_Dessert_MatchaMousse"><path codeLine="48" d="M669.7842,100.1545 C700.3892,129.3365 732.799,160.239 763.365,189.383 " fill="none" id="Dessert-backto-MatchaMousse" style="stroke:#181818;stroke-width:1.0;"/><polygon fill="none" points="656.757,87.733,665.6437,104.4969,673.9247,95.8121,656.757,87.733" style="stroke:#181818;stroke-width:1.0;"/><text fill="#000000" font-family="sans-serif" font-size="13" lengthAdjust="spacing" textLength="26" x="721" y="147.0669">&#32487;&#25215;</text></g><g id="link_MatchaMousse_AmericanDessertFactory"><path codeLine="51" d="M756.3169,257.6738 C728.7299,282.1258 694.647,312.336 664.847,338.7491 " fill="none" id="MatchaMousse-backto-AmericanDessertFactory" style="stroke:#181818;stroke-width:1.0;stroke-dasharray:7.0,7.0;"/><polygon fill="#181818" points="760.807,253.694,751.4186,256.6704,757.0653,257.0105,756.7251,262.6571,760.807,253.694" style="stroke:#181818;stroke-width:1.0;"/><text fill="#000000" font-family="sans-serif" font-size="13" lengthAdjust="spacing" textLength="26" x="714" y="305.0669">&#20381;&#36182;</text></g><g id="link_AmericanCoffee_AmericanDessertFactory"><path codeLine="52" d="M620,259.694 C620,284.146 620,312.336 620,338.7491 " fill="none" id="AmericanCoffee-backto-AmericanDessertFactory" style="stroke:#181818;stroke-width:1.0;stroke-dasharray:7.0,7.0;"/><polygon fill="#181818" points="620,253.694,616,262.694,620,258.694,624,262.694,620,253.694" style="stroke:#181818;stroke-width:1.0;"/><text fill="#000000" font-family="sans-serif" font-size="13" lengthAdjust="spacing" textLength="26" x="621" y="305.0669">&#20381;&#36182;</text></g><g id="link_Tiramisu_ItalyDessertFactory"><path codeLine="54" d="M239,259.694 C239,284.146 239,312.336 239,338.7491 " fill="none" id="Tiramisu-backto-ItalyDessertFactory" style="stroke:#181818;stroke-width:1.0;stroke-dasharray:7.0,7.0;"/><polygon fill="#181818" points="239,253.694,235,262.694,239,258.694,243,262.694,239,253.694" style="stroke:#181818;stroke-width:1.0;"/><text fill="#000000" font-family="sans-serif" font-size="13" lengthAdjust="spacing" textLength="26" x="240" y="305.0669">&#20381;&#36182;</text></g><g id="link_LatteCoffee_ItalyDessertFactory"><path codeLine="55" d="M115.29,257.8826 C140.369,282.3346 171.139,312.336 198.23,338.7491 " fill="none" id="LatteCoffee-backto-ItalyDessertFactory" style="stroke:#181818;stroke-width:1.0;stroke-dasharray:7.0,7.0;"/><polygon fill="#181818" points="110.994,253.694,114.6456,262.8409,114.574,257.1845,120.2304,257.1129,110.994,253.694" style="stroke:#181818;stroke-width:1.0;"/><text fill="#000000" font-family="sans-serif" font-size="13" lengthAdjust="spacing" textLength="26" x="165" y="305.0669">&#20381;&#36182;</text></g><g id="link_DessertFactory_ItalyDessertFactory"><path codeLine="57" d="M360.2234,274.0205 C332.9914,297.4915 312.275,315.346 285.058,338.8036 " fill="none" id="DessertFactory-backto-ItalyDessertFactory" style="stroke:#181818;stroke-width:1.0;stroke-dasharray:7.0,7.0;"/><polygon fill="none" points="373.858,262.269,356.3062,269.4757,364.1406,278.5654,373.858,262.269" style="stroke:#181818;stroke-width:1.0;"/><text fill="#000000" font-family="sans-serif" font-size="13" lengthAdjust="spacing" textLength="26" x="336" y="305.0669">&#23454;&#29616;</text></g><g id="link_DessertFactory_AmericanDessertFactory"><path codeLine="58" d="M484.92,273.1376 C515.125,296.6976 539.132,315.423 569.327,338.9751 " fill="none" id="DessertFactory-backto-AmericanDessertFactory" style="stroke:#181818;stroke-width:1.0;stroke-dasharray:7.0,7.0;"/><polygon fill="none" points="470.727,262.067,481.2298,277.8686,488.6102,268.4066,470.727,262.067" style="stroke:#181818;stroke-width:1.0;"/><text fill="#000000" font-family="sans-serif" font-size="13" lengthAdjust="spacing" textLength="26" x="527" y="305.0669">&#23454;&#29616;</text></g></g></svg>