<?xml version="1.0" encoding="us-ascii" standalone="no"?><svg xmlns="http://www.w3.org/2000/svg" xmlns:xlink="http://www.w3.org/1999/xlink" contentStyleType="text/css" height="598px" preserveAspectRatio="none" style="width:765px;height:598px;background:#FFFFFF;" version="1.1" viewBox="0 0 765 598" width="765px" zoomAndPan="magnify"><defs/><g><g id="elem_Director"><rect codeLine="2" fill="#F1F1F1" height="80.5938" id="Director" rx="2.5" ry="2.5" style="stroke:#181818;stroke-width:0.5;" width="161" x="378.5" y="92"/><ellipse cx="427.25" cy="108" fill="#ADD1B2" rx="11" ry="11" style="stroke:#181818;stroke-width:1.0;"/><path d="M430.2188,113.6406 Q429.6406,113.9375 429,114.0781 Q428.3594,114.2344 427.6563,114.2344 Q425.1563,114.2344 423.8281,112.5938 Q422.5156,110.9375 422.5156,107.8125 Q422.5156,104.6875 423.8281,103.0313 Q425.1563,101.375 427.6563,101.375 Q428.3594,101.375 429,101.5313 Q429.6563,101.6875 430.2188,101.9844 L430.2188,104.7031 Q429.5938,104.125 429,103.8594 Q428.4063,103.5781 427.7813,103.5781 Q426.4375,103.5781 425.75,104.6563 Q425.0625,105.7188 425.0625,107.8125 Q425.0625,109.9063 425.75,110.9844 Q426.4375,112.0469 427.7813,112.0469 Q428.4063,112.0469 429,111.7813 Q429.5938,111.5 430.2188,110.9219 L430.2188,113.6406 Z " fill="#000000"/><text fill="#000000" font-family="sans-serif" font-size="14" lengthAdjust="spacing" textLength="55" x="447.75" y="112.8467">Director</text><line style="stroke:#181818;stroke-width:0.5;" x1="379.5" x2="538.5" y1="124" y2="124"/><rect fill="none" height="6" style="stroke:#C82930;stroke-width:1.0;" width="6" x="386.5" y="134.6484"/><text fill="#000000" font-family="sans-serif" font-size="14" lengthAdjust="spacing" textLength="100" x="398.5" y="140.9951">builder:Builder</text><line style="stroke:#181818;stroke-width:0.5;" x1="379.5" x2="538.5" y1="148.2969" y2="148.2969"/><ellipse cx="389.5" cy="161.9453" fill="#84BE84" rx="3" ry="3" style="stroke:#038048;stroke-width:1.0;"/><text fill="#000000" font-family="sans-serif" font-size="14" lengthAdjust="spacing" textLength="135" x="398.5" y="165.292">construct():Product</text></g><g id="elem_GMN3"><path d="M322.5,6 L322.5,31.1328 A0,0 0 0 0 322.5,31.1328 L455,31.1328 L459,91.76 L463,31.1328 L595.5,31.1328 A0,0 0 0 0 595.5,31.1328 L595.5,16 L585.5,6 L322.5,6 A0,0 0 0 0 322.5,6 " fill="#FEFFDD" style="stroke:#181818;stroke-width:0.5;"/><path d="M585.5,6 L585.5,16 L595.5,16 L585.5,6 " fill="#FEFFDD" style="stroke:#181818;stroke-width:0.5;"/><text fill="#000000" font-family="sans-serif" font-size="13" lengthAdjust="spacing" textLength="252" x="328.5" y="23.0669">&#25351;&#25381;&#32773;&#65292;&#26159;&#26500;&#24314;&#19968;&#20010;&#20351;&#29992;Builder&#25509;&#21475;&#30340;&#23545;&#35937;</text></g><g id="elem_Builder"><rect codeLine="10" fill="#F1F1F1" height="80.5938" id="Builder" rx="2.5" ry="2.5" style="stroke:#181818;stroke-width:0.5;" width="139" x="389.5" y="250"/><ellipse cx="431.05" cy="266" fill="#B4A7E5" rx="11" ry="11" style="stroke:#181818;stroke-width:1.0;"/><path d="M426.9719,261.7656 L426.9719,259.6094 L434.3625,259.6094 L434.3625,261.7656 L431.8938,261.7656 L431.8938,269.8438 L434.3625,269.8438 L434.3625,272 L426.9719,272 L426.9719,269.8438 L429.4406,269.8438 L429.4406,261.7656 L426.9719,261.7656 Z " fill="#000000"/><text fill="#000000" font-family="sans-serif" font-size="14" font-style="italic" lengthAdjust="spacing" textLength="48" x="450.95" y="270.8467">Builder</text><line style="stroke:#181818;stroke-width:0.5;" x1="390.5" x2="527.5" y1="282" y2="282"/><line style="stroke:#181818;stroke-width:0.5;" x1="390.5" x2="527.5" y1="290" y2="290"/><ellipse cx="400.5" cy="303.6484" fill="#84BE84" rx="3" ry="3" style="stroke:#038048;stroke-width:1.0;"/><text fill="#000000" font-family="sans-serif" font-size="14" lengthAdjust="spacing" textLength="112" x="409.5" y="306.9951">buildPartA():void</text><ellipse cx="400.5" cy="319.9453" fill="#84BE84" rx="3" ry="3" style="stroke:#038048;stroke-width:1.0;"/><text fill="#000000" font-family="sans-serif" font-size="14" lengthAdjust="spacing" textLength="113" x="409.5" y="323.292">buildPartB():void</text></g><g id="elem_GMN7"><path d="M6,278 L6,303.1328 A0,0 0 0 0 6,303.1328 L354,303.1328 A0,0 0 0 0 354,303.1328 L354,296 L389.342,290.5 L354,288 L354,288 L344,278 L6,278 A0,0 0 0 0 6,278 " fill="#FEFFDD" style="stroke:#181818;stroke-width:0.5;"/><path d="M344,278 L344,288 L354,288 L344,278 " fill="#FEFFDD" style="stroke:#181818;stroke-width:0.5;"/><text fill="#000000" font-family="sans-serif" font-size="13" lengthAdjust="spacing" textLength="327" x="12" y="295.0669">Builder&#26159;&#20026;&#21019;&#24314;&#19968;&#20010;Product&#23545;&#35937;&#30340;&#21508;&#20010;&#37096;&#20214;&#25351;&#23450;&#30340;&#25509;&#21475;</text></g><g id="elem_ConcreateBuilder"><rect codeLine="18" fill="#F1F1F1" height="96.8906" id="ConcreateBuilder" rx="2.5" ry="2.5" style="stroke:#181818;stroke-width:0.5;" width="162" x="462" y="408"/><ellipse cx="481.5" cy="424" fill="#ADD1B2" rx="11" ry="11" style="stroke:#181818;stroke-width:1.0;"/><path d="M484.4688,429.6406 Q483.8906,429.9375 483.25,430.0781 Q482.6094,430.2344 481.9063,430.2344 Q479.4063,430.2344 478.0781,428.5938 Q476.7656,426.9375 476.7656,423.8125 Q476.7656,420.6875 478.0781,419.0313 Q479.4063,417.375 481.9063,417.375 Q482.6094,417.375 483.25,417.5313 Q483.9063,417.6875 484.4688,417.9844 L484.4688,420.7031 Q483.8438,420.125 483.25,419.8594 Q482.6563,419.5781 482.0313,419.5781 Q480.6875,419.5781 480,420.6563 Q479.3125,421.7188 479.3125,423.8125 Q479.3125,425.9063 480,426.9844 Q480.6875,428.0469 482.0313,428.0469 Q482.6563,428.0469 483.25,427.7813 Q483.8438,427.5 484.4688,426.9219 L484.4688,429.6406 Z " fill="#000000"/><text fill="#000000" font-family="sans-serif" font-size="14" lengthAdjust="spacing" textLength="120" x="496.5" y="428.8467">ConcreateBuilder</text><line style="stroke:#181818;stroke-width:0.5;" x1="463" x2="623" y1="440" y2="440"/><line style="stroke:#181818;stroke-width:0.5;" x1="463" x2="623" y1="448" y2="448"/><ellipse cx="473" cy="461.6484" fill="#84BE84" rx="3" ry="3" style="stroke:#038048;stroke-width:1.0;"/><text fill="#000000" font-family="sans-serif" font-size="14" lengthAdjust="spacing" textLength="112" x="482" y="464.9951">buildPartA():void</text><ellipse cx="473" cy="477.9453" fill="#84BE84" rx="3" ry="3" style="stroke:#038048;stroke-width:1.0;"/><text fill="#000000" font-family="sans-serif" font-size="14" lengthAdjust="spacing" textLength="113" x="482" y="481.292">buildPartB():void</text><ellipse cx="473" cy="494.2422" fill="#84BE84" rx="3" ry="3" style="stroke:#038048;stroke-width:1.0;"/><text fill="#000000" font-family="sans-serif" font-size="14" lengthAdjust="spacing" textLength="136" x="482" y="497.5889">getResult():Product</text></g><g id="elem_GMN11"><path d="M374,566 L374,591.1328 A0,0 0 0 0 374,591.1328 L712,591.1328 A0,0 0 0 0 712,591.1328 L712,576 L702,566 L547,566 L543,505.272 L539,566 L374,566 A0,0 0 0 0 374,566 " fill="#FEFFDD" style="stroke:#181818;stroke-width:0.5;"/><path d="M702,566 L702,576 L712,576 L702,566 " fill="#FEFFDD" style="stroke:#181818;stroke-width:0.5;"/><text fill="#000000" font-family="sans-serif" font-size="13" lengthAdjust="spacing" textLength="317" x="380" y="583.0669">&#20855;&#20307;&#30340;&#26500;&#24314;&#32773;&#65292;&#23454;&#29616;Builder&#25509;&#21475;&#65292;&#26500;&#36896;&#21644;&#35013;&#37197;&#21508;&#20010;&#37096;&#20214;</text></g><g id="elem_Product"><rect codeLine="27" fill="#F1F1F1" height="48" id="Product" rx="2.5" ry="2.5" style="stroke:#181818;stroke-width:0.5;" width="86" x="564" y="266.5"/><ellipse cx="579" cy="282.5" fill="#ADD1B2" rx="11" ry="11" style="stroke:#181818;stroke-width:1.0;"/><path d="M581.9688,288.1406 Q581.3906,288.4375 580.75,288.5781 Q580.1094,288.7344 579.4063,288.7344 Q576.9063,288.7344 575.5781,287.0938 Q574.2656,285.4375 574.2656,282.3125 Q574.2656,279.1875 575.5781,277.5313 Q576.9063,275.875 579.4063,275.875 Q580.1094,275.875 580.75,276.0313 Q581.4063,276.1875 581.9688,276.4844 L581.9688,279.2031 Q581.3438,278.625 580.75,278.3594 Q580.1563,278.0781 579.5313,278.0781 Q578.1875,278.0781 577.5,279.1563 Q576.8125,280.2188 576.8125,282.3125 Q576.8125,284.4063 577.5,285.4844 Q578.1875,286.5469 579.5313,286.5469 Q580.1563,286.5469 580.75,286.2813 Q581.3438,286 581.9688,285.4219 L581.9688,288.1406 Z " fill="#000000"/><text fill="#000000" font-family="sans-serif" font-size="14" lengthAdjust="spacing" textLength="54" x="593" y="287.3467">Product</text><line style="stroke:#181818;stroke-width:0.5;" x1="565" x2="649" y1="298.5" y2="298.5"/><line style="stroke:#181818;stroke-width:0.5;" x1="565" x2="649" y1="306.5" y2="306.5"/></g><g id="elem_GMN15"><path d="M685.5,278 L685.5,286.5 L650.125,290.5 L685.5,294.5 L685.5,303.1328 A0,0 0 0 0 685.5,303.1328 L758.5,303.1328 A0,0 0 0 0 758.5,303.1328 L758.5,288 L748.5,278 L685.5,278 A0,0 0 0 0 685.5,278 " fill="#FEFFDD" style="stroke:#181818;stroke-width:0.5;"/><path d="M748.5,278 L748.5,288 L758.5,288 L748.5,278 " fill="#FEFFDD" style="stroke:#181818;stroke-width:0.5;"/><text fill="#000000" font-family="sans-serif" font-size="13" lengthAdjust="spacing" textLength="52" x="691.5" y="295.0669">&#20855;&#20307;&#20135;&#21697;</text></g><g id="link_Director_Builder"><path codeLine="33" d="M459,185.269 C459,208.74 459,226.346 459,249.804 " fill="none" id="Director-backto-Builder" style="stroke:#181818;stroke-width:1.0;"/><polygon fill="none" points="459,173.269,455,179.269,459,185.269,463,179.269,459,173.269" style="stroke:#181818;stroke-width:1.0;"/><text fill="#000000" font-family="sans-serif" font-size="13" lengthAdjust="spacing" textLength="26" x="460" y="216.0669">&#38598;&#21512;</text></g><g id="link_Builder_ConcreateBuilder"><path codeLine="34" d="M487.5397,347.2208 C499.3867,370.3508 506.196,383.645 518.668,407.996 " fill="none" id="Builder-backto-ConcreateBuilder" style="stroke:#181818;stroke-width:1.0;stroke-dasharray:7.0,7.0;"/><polygon fill="none" points="479.334,331.2,482.1995,349.956,492.88,344.4856,479.334,331.2" style="stroke:#181818;stroke-width:1.0;"/><text fill="#000000" font-family="sans-serif" font-size="13" lengthAdjust="spacing" textLength="26" x="502" y="374.0669">&#23454;&#29616;</text></g><g id="link_Product_ConcreateBuilder"><path codeLine="35" d="M595.7849,320.2385 C586.3789,344.3435 573.557,377.198 561.6,407.836 " fill="none" id="Product-backto-ConcreateBuilder" style="stroke:#181818;stroke-width:1.0;stroke-dasharray:7.0,7.0;"/><polygon fill="#181818" points="597.966,314.649,590.968,321.5792,596.1484,319.3069,598.4207,324.4874,597.966,314.649" style="stroke:#181818;stroke-width:1.0;"/><text fill="#000000" font-family="sans-serif" font-size="13" lengthAdjust="spacing" textLength="26" x="579" y="374.0669">&#20381;&#36182;</text></g></g></svg>