<?xml version="1.0" encoding="us-ascii" standalone="no"?><svg xmlns="http://www.w3.org/2000/svg" xmlns:xlink="http://www.w3.org/1999/xlink" contentStyleType="text/css" height="360px" preserveAspectRatio="none" style="width:295px;height:360px;background:#FFFFFF;" version="1.1" viewBox="0 0 295 360" width="295px" zoomAndPan="magnify"><defs/><g><g id="elem_SellTickets"><rect codeLine="2" fill="#F1F1F1" height="64.2969" id="SellTickets" rx="2.5" ry="2.5" style="stroke:#181818;stroke-width:0.5;" width="106" x="92" y="7"/><ellipse cx="107" cy="23" fill="#B4A7E5" rx="11" ry="11" style="stroke:#181818;stroke-width:1.0;"/><path d="M102.9219,18.7656 L102.9219,16.6094 L110.3125,16.6094 L110.3125,18.7656 L107.8438,18.7656 L107.8438,26.8438 L110.3125,26.8438 L110.3125,29 L102.9219,29 L102.9219,26.8438 L105.3906,26.8438 L105.3906,18.7656 L102.9219,18.7656 Z " fill="#000000"/><text fill="#000000" font-family="sans-serif" font-size="14" font-style="italic" lengthAdjust="spacing" textLength="74" x="121" y="27.8467">SellTickets</text><line style="stroke:#181818;stroke-width:0.5;" x1="93" x2="197" y1="39" y2="39"/><line style="stroke:#181818;stroke-width:0.5;" x1="93" x2="197" y1="47" y2="47"/><ellipse cx="103" cy="60.6484" fill="#84BE84" rx="3" ry="3" style="stroke:#038048;stroke-width:1.0;"/><text fill="#000000" font-family="sans-serif" font-size="14" lengthAdjust="spacing" textLength="66" x="112" y="63.9951">sell():void</text></g><g id="elem_TrainStation"><rect codeLine="5" fill="#F1F1F1" height="64.2969" id="TrainStation" rx="2.5" ry="2.5" style="stroke:#181818;stroke-width:0.5;" width="114" x="174" y="148"/><ellipse cx="189" cy="164" fill="#ADD1B2" rx="11" ry="11" style="stroke:#181818;stroke-width:1.0;"/><path d="M191.9688,169.6406 Q191.3906,169.9375 190.75,170.0781 Q190.1094,170.2344 189.4063,170.2344 Q186.9063,170.2344 185.5781,168.5938 Q184.2656,166.9375 184.2656,163.8125 Q184.2656,160.6875 185.5781,159.0313 Q186.9063,157.375 189.4063,157.375 Q190.1094,157.375 190.75,157.5313 Q191.4063,157.6875 191.9688,157.9844 L191.9688,160.7031 Q191.3438,160.125 190.75,159.8594 Q190.1563,159.5781 189.5313,159.5781 Q188.1875,159.5781 187.5,160.6563 Q186.8125,161.7188 186.8125,163.8125 Q186.8125,165.9063 187.5,166.9844 Q188.1875,168.0469 189.5313,168.0469 Q190.1563,168.0469 190.75,167.7813 Q191.3438,167.5 191.9688,166.9219 L191.9688,169.6406 Z " fill="#000000"/><text fill="#000000" font-family="sans-serif" font-size="14" lengthAdjust="spacing" textLength="82" x="203" y="168.8467">TrainStation</text><line style="stroke:#181818;stroke-width:0.5;" x1="175" x2="287" y1="180" y2="180"/><line style="stroke:#181818;stroke-width:0.5;" x1="175" x2="287" y1="188" y2="188"/><ellipse cx="185" cy="201.6484" fill="#84BE84" rx="3" ry="3" style="stroke:#038048;stroke-width:1.0;"/><text fill="#000000" font-family="sans-serif" font-size="14" lengthAdjust="spacing" textLength="66" x="194" y="204.9951">sell():void</text></g><g id="elem_ProxyPoint"><rect codeLine="8" fill="#F1F1F1" height="64.2969" id="ProxyPoint" rx="2.5" ry="2.5" style="stroke:#181818;stroke-width:0.5;" width="104" x="7" y="148"/><ellipse cx="22" cy="164" fill="#ADD1B2" rx="11" ry="11" style="stroke:#181818;stroke-width:1.0;"/><path d="M24.9688,169.6406 Q24.3906,169.9375 23.75,170.0781 Q23.1094,170.2344 22.4063,170.2344 Q19.9063,170.2344 18.5781,168.5938 Q17.2656,166.9375 17.2656,163.8125 Q17.2656,160.6875 18.5781,159.0313 Q19.9063,157.375 22.4063,157.375 Q23.1094,157.375 23.75,157.5313 Q24.4063,157.6875 24.9688,157.9844 L24.9688,160.7031 Q24.3438,160.125 23.75,159.8594 Q23.1563,159.5781 22.5313,159.5781 Q21.1875,159.5781 20.5,160.6563 Q19.8125,161.7188 19.8125,163.8125 Q19.8125,165.9063 20.5,166.9844 Q21.1875,168.0469 22.5313,168.0469 Q23.1563,168.0469 23.75,167.7813 Q24.3438,167.5 24.9688,166.9219 L24.9688,169.6406 Z " fill="#000000"/><text fill="#000000" font-family="sans-serif" font-size="14" lengthAdjust="spacing" textLength="72" x="36" y="168.8467">ProxyPoint</text><line style="stroke:#181818;stroke-width:0.5;" x1="8" x2="110" y1="180" y2="180"/><line style="stroke:#181818;stroke-width:0.5;" x1="8" x2="110" y1="188" y2="188"/><ellipse cx="18" cy="201.6484" fill="#84BE84" rx="3" ry="3" style="stroke:#038048;stroke-width:1.0;"/><text fill="#000000" font-family="sans-serif" font-size="14" lengthAdjust="spacing" textLength="66" x="27" y="204.9951">sell():void</text></g><g id="elem_Client"><rect codeLine="11" fill="#F1F1F1" height="64.2969" id="Client" rx="2.5" ry="2.5" style="stroke:#181818;stroke-width:0.5;" width="102" x="8" y="289"/><ellipse cx="36.95" cy="305" fill="#ADD1B2" rx="11" ry="11" style="stroke:#181818;stroke-width:1.0;"/><path d="M39.9188,310.6406 Q39.3406,310.9375 38.7,311.0781 Q38.0594,311.2344 37.3563,311.2344 Q34.8563,311.2344 33.5281,309.5938 Q32.2156,307.9375 32.2156,304.8125 Q32.2156,301.6875 33.5281,300.0313 Q34.8563,298.375 37.3563,298.375 Q38.0594,298.375 38.7,298.5313 Q39.3563,298.6875 39.9188,298.9844 L39.9188,301.7031 Q39.2938,301.125 38.7,300.8594 Q38.1063,300.5781 37.4813,300.5781 Q36.1375,300.5781 35.45,301.6563 Q34.7625,302.7188 34.7625,304.8125 Q34.7625,306.9063 35.45,307.9844 Q36.1375,309.0469 37.4813,309.0469 Q38.1063,309.0469 38.7,308.7813 Q39.2938,308.5 39.9188,307.9219 L39.9188,310.6406 Z " fill="#000000"/><text fill="#000000" font-family="sans-serif" font-size="14" lengthAdjust="spacing" textLength="39" x="54.05" y="309.8467">Client</text><line style="stroke:#181818;stroke-width:0.5;" x1="9" x2="109" y1="321" y2="321"/><line style="stroke:#181818;stroke-width:0.5;" x1="9" x2="109" y1="329" y2="329"/><ellipse cx="19" cy="342.6484" fill="#84BE84" rx="3" ry="3" style="stroke:#038048;stroke-width:1.0;"/><text fill="#000000" font-family="sans-serif" font-size="14" lengthAdjust="spacing" textLength="76" x="28" y="345.9951">main():void</text></g><g id="link_SellTickets_TrainStation"><path codeLine="15" d="M173.7706,86.5011 C187.9346,109.3941 197.616,125.042 211.764,147.91 " fill="none" id="SellTickets-backto-TrainStation" style="stroke:#181818;stroke-width:1.0;stroke-dasharray:7.0,7.0;"/><polygon fill="none" points="164.3,71.194,168.6682,89.658,178.873,83.3443,164.3,71.194" style="stroke:#181818;stroke-width:1.0;"/><text fill="#000000" font-family="sans-serif" font-size="13" lengthAdjust="spacing" textLength="26" x="195" y="114.0669">&#23454;&#29616;</text></g><g id="link_SellTickets_ProxyPoint"><path codeLine="16" d="M116.2294,86.5011 C102.0654,109.3941 92.384,125.042 78.2357,147.91 " fill="none" id="SellTickets-backto-ProxyPoint" style="stroke:#181818;stroke-width:1.0;stroke-dasharray:7.0,7.0;"/><polygon fill="none" points="125.7,71.194,111.127,83.3443,121.3318,89.658,125.7,71.194" style="stroke:#181818;stroke-width:1.0;"/><text fill="#000000" font-family="sans-serif" font-size="13" lengthAdjust="spacing" textLength="26" x="109" y="114.0669">&#23454;&#29616;</text></g><g id="link_ProxyPoint_TrainStation"><path codeLine="18" d="M123.072,180 C142.847,180 153.473,180 173.704,180 " fill="none" id="ProxyPoint-backto-TrainStation" style="stroke:#181818;stroke-width:1.0;"/><polygon fill="none" points="111.072,180,117.072,184,123.072,180,117.072,176,111.072,180" style="stroke:#181818;stroke-width:1.0;"/><text fill="#000000" font-family="sans-serif" font-size="13" lengthAdjust="spacing" textLength="26" x="129.5" y="173.0669">&#38598;&#21512;</text></g><g id="link_ProxyPoint_Client"><path codeLine="19" d="M59,218.194 C59,241.087 59,266.0421 59,288.9098 " fill="none" id="ProxyPoint-backto-Client" style="stroke:#181818;stroke-width:1.0;stroke-dasharray:7.0,7.0;"/><polygon fill="#181818" points="59,212.194,55,221.194,59,217.194,63,221.194,59,212.194" style="stroke:#181818;stroke-width:1.0;"/><text fill="#000000" font-family="sans-serif" font-size="13" lengthAdjust="spacing" textLength="26" x="60" y="255.0669">&#20381;&#36182;</text></g></g></svg>