<?xml version="1.0" encoding="us-ascii" standalone="no"?><svg xmlns="http://www.w3.org/2000/svg" xmlns:xlink="http://www.w3.org/1999/xlink" contentStyleType="text/css" height="665px" preserveAspectRatio="none" style="width:623px;height:665px;background:#FFFFFF;" version="1.1" viewBox="0 0 623 665" width="623px" zoomAndPan="magnify"><defs/><g><g id="elem_FastFood"><rect codeLine="2" fill="#F1F1F1" height="162.0781" id="FastFood" rx="2.5" ry="2.5" style="stroke:#181818;stroke-width:0.5;" width="205" x="170.5" y="7"/><ellipse cx="236.75" cy="23" fill="#ADD1B2" rx="11" ry="11" style="stroke:#181818;stroke-width:1.0;"/><path d="M239.7188,28.6406 Q239.1406,28.9375 238.5,29.0781 Q237.8594,29.2344 237.1563,29.2344 Q234.6563,29.2344 233.3281,27.5938 Q232.0156,25.9375 232.0156,22.8125 Q232.0156,19.6875 233.3281,18.0313 Q234.6563,16.375 237.1563,16.375 Q237.8594,16.375 238.5,16.5313 Q239.1563,16.6875 239.7188,16.9844 L239.7188,19.7031 Q239.0938,19.125 238.5,18.8594 Q237.9063,18.5781 237.2813,18.5781 Q235.9375,18.5781 235.25,19.6563 Q234.5625,20.7188 234.5625,22.8125 Q234.5625,24.9063 235.25,25.9844 Q235.9375,27.0469 237.2813,27.0469 Q237.9063,27.0469 238.5,26.7813 Q239.0938,26.5 239.7188,25.9219 L239.7188,28.6406 Z " fill="#000000"/><text fill="#000000" font-family="sans-serif" font-size="14" lengthAdjust="spacing" textLength="64" x="257.25" y="27.8467">FastFood</text><line style="stroke:#181818;stroke-width:0.5;" x1="171.5" x2="374.5" y1="39" y2="39"/><rect fill="none" height="6" style="stroke:#C82930;stroke-width:1.0;" width="6" x="178.5" y="49.6484"/><text fill="#000000" font-family="sans-serif" font-size="14" lengthAdjust="spacing" textLength="68" x="190.5" y="55.9951">price:float</text><rect fill="none" height="6" style="stroke:#C82930;stroke-width:1.0;" width="6" x="178.5" y="65.9453"/><text fill="#000000" font-family="sans-serif" font-size="14" lengthAdjust="spacing" textLength="79" x="190.5" y="72.292">desc:String</text><line style="stroke:#181818;stroke-width:0.5;" x1="171.5" x2="374.5" y1="79.5938" y2="79.5938"/><ellipse cx="181.5" cy="93.2422" fill="#84BE84" rx="3" ry="3" style="stroke:#038048;stroke-width:1.0;"/><text fill="#000000" font-family="sans-serif" font-size="14" lengthAdjust="spacing" textLength="166" x="190.5" y="96.5889">setPrice(float price):void</text><ellipse cx="181.5" cy="109.5391" fill="#84BE84" rx="3" ry="3" style="stroke:#038048;stroke-width:1.0;"/><text fill="#000000" font-family="sans-serif" font-size="14" lengthAdjust="spacing" textLength="101" x="190.5" y="112.8857">getPrice():float</text><ellipse cx="181.5" cy="125.8359" fill="#84BE84" rx="3" ry="3" style="stroke:#038048;stroke-width:1.0;"/><text fill="#000000" font-family="sans-serif" font-size="14" lengthAdjust="spacing" textLength="179" x="190.5" y="129.1826">setDesc(String desc):void</text><ellipse cx="181.5" cy="142.1328" fill="#84BE84" rx="3" ry="3" style="stroke:#038048;stroke-width:1.0;"/><text fill="#000000" font-family="sans-serif" font-size="14" lengthAdjust="spacing" textLength="114" x="190.5" y="145.4795">getDesc():String</text><ellipse cx="181.5" cy="158.4297" fill="#84BE84" rx="3" ry="3" style="stroke:#038048;stroke-width:1.0;"/><text fill="#000000" font-family="sans-serif" font-size="14" lengthAdjust="spacing" textLength="74" x="190.5" y="161.7764">cost():float</text></g><g id="elem_FriedRice"><rect codeLine="11" fill="#F1F1F1" height="80.5938" id="FriedRice" rx="2.5" ry="2.5" style="stroke:#181818;stroke-width:0.5;" width="100" x="7" y="246"/><ellipse cx="23.8" cy="262" fill="#ADD1B2" rx="11" ry="11" style="stroke:#181818;stroke-width:1.0;"/><path d="M26.7688,267.6406 Q26.1906,267.9375 25.55,268.0781 Q24.9094,268.2344 24.2063,268.2344 Q21.7063,268.2344 20.3781,266.5938 Q19.0656,264.9375 19.0656,261.8125 Q19.0656,258.6875 20.3781,257.0313 Q21.7063,255.375 24.2063,255.375 Q24.9094,255.375 25.55,255.5313 Q26.2063,255.6875 26.7688,255.9844 L26.7688,258.7031 Q26.1438,258.125 25.55,257.8594 Q24.9563,257.5781 24.3313,257.5781 Q22.9875,257.5781 22.3,258.6563 Q21.6125,259.7188 21.6125,261.8125 Q21.6125,263.9063 22.3,264.9844 Q22.9875,266.0469 24.3313,266.0469 Q24.9563,266.0469 25.55,265.7813 Q26.1438,265.5 26.7688,264.9219 L26.7688,267.6406 Z " fill="#000000"/><text fill="#000000" font-family="sans-serif" font-size="14" lengthAdjust="spacing" textLength="64" x="38.2" y="266.8467">FriedRice</text><line style="stroke:#181818;stroke-width:0.5;" x1="8" x2="106" y1="278" y2="278"/><line style="stroke:#181818;stroke-width:0.5;" x1="8" x2="106" y1="286" y2="286"/><ellipse cx="18" cy="299.6484" fill="#84BE84" rx="3" ry="3" style="stroke:#038048;stroke-width:1.0;"/><text fill="#000000" font-family="sans-serif" font-size="14" lengthAdjust="spacing" textLength="74" x="27" y="302.9951">FriedRice()</text><ellipse cx="18" cy="315.9453" fill="#84BE84" rx="3" ry="3" style="stroke:#038048;stroke-width:1.0;"/><text fill="#000000" font-family="sans-serif" font-size="14" lengthAdjust="spacing" textLength="74" x="27" y="319.292">cost():float</text></g><g id="elem_FriedNoodles"><rect codeLine="15" fill="#F1F1F1" height="80.5938" id="FriedNoodles" rx="2.5" ry="2.5" style="stroke:#181818;stroke-width:0.5;" width="127" x="142.5" y="246"/><ellipse cx="159.3" cy="262" fill="#ADD1B2" rx="11" ry="11" style="stroke:#181818;stroke-width:1.0;"/><path d="M162.2688,267.6406 Q161.6906,267.9375 161.05,268.0781 Q160.4094,268.2344 159.7063,268.2344 Q157.2063,268.2344 155.8781,266.5938 Q154.5656,264.9375 154.5656,261.8125 Q154.5656,258.6875 155.8781,257.0313 Q157.2063,255.375 159.7063,255.375 Q160.4094,255.375 161.05,255.5313 Q161.7063,255.6875 162.2688,255.9844 L162.2688,258.7031 Q161.6438,258.125 161.05,257.8594 Q160.4563,257.5781 159.8313,257.5781 Q158.4875,257.5781 157.8,258.6563 Q157.1125,259.7188 157.1125,261.8125 Q157.1125,263.9063 157.8,264.9844 Q158.4875,266.0469 159.8313,266.0469 Q160.4563,266.0469 161.05,265.7813 Q161.6438,265.5 162.2688,264.9219 L162.2688,267.6406 Z " fill="#000000"/><text fill="#000000" font-family="sans-serif" font-size="14" lengthAdjust="spacing" textLength="91" x="173.7" y="266.8467">FriedNoodles</text><line style="stroke:#181818;stroke-width:0.5;" x1="143.5" x2="268.5" y1="278" y2="278"/><line style="stroke:#181818;stroke-width:0.5;" x1="143.5" x2="268.5" y1="286" y2="286"/><ellipse cx="153.5" cy="299.6484" fill="#84BE84" rx="3" ry="3" style="stroke:#038048;stroke-width:1.0;"/><text fill="#000000" font-family="sans-serif" font-size="14" lengthAdjust="spacing" textLength="101" x="162.5" y="302.9951">FriedNoodles()</text><ellipse cx="153.5" cy="315.9453" fill="#84BE84" rx="3" ry="3" style="stroke:#038048;stroke-width:1.0;"/><text fill="#000000" font-family="sans-serif" font-size="14" lengthAdjust="spacing" textLength="74" x="162.5" y="319.292">cost():float</text></g><g id="elem_Garnish"><rect codeLine="19" fill="#F1F1F1" height="96.8906" id="Garnish" rx="2.5" ry="2.5" style="stroke:#181818;stroke-width:0.5;" width="370" x="223" y="388"/><ellipse cx="377.25" cy="404" fill="#ADD1B2" rx="11" ry="11" style="stroke:#181818;stroke-width:1.0;"/><path d="M380.2188,409.6406 Q379.6406,409.9375 379,410.0781 Q378.3594,410.2344 377.6563,410.2344 Q375.1563,410.2344 373.8281,408.5938 Q372.5156,406.9375 372.5156,403.8125 Q372.5156,400.6875 373.8281,399.0313 Q375.1563,397.375 377.6563,397.375 Q378.3594,397.375 379,397.5313 Q379.6563,397.6875 380.2188,397.9844 L380.2188,400.7031 Q379.5938,400.125 379,399.8594 Q378.4063,399.5781 377.7813,399.5781 Q376.4375,399.5781 375.75,400.6563 Q375.0625,401.7188 375.0625,403.8125 Q375.0625,405.9063 375.75,406.9844 Q376.4375,408.0469 377.7813,408.0469 Q378.4063,408.0469 379,407.7813 Q379.5938,407.5 380.2188,406.9219 L380.2188,409.6406 Z " fill="#000000"/><text fill="#000000" font-family="sans-serif" font-size="14" lengthAdjust="spacing" textLength="53" x="397.75" y="408.8467">Garnish</text><line style="stroke:#181818;stroke-width:0.5;" x1="224" x2="592" y1="420" y2="420"/><rect fill="none" height="6" style="stroke:#C82930;stroke-width:1.0;" width="6" x="231" y="430.6484"/><text fill="#000000" font-family="sans-serif" font-size="14" lengthAdjust="spacing" textLength="129" x="243" y="436.9951">fastFood:FastFood</text><line style="stroke:#181818;stroke-width:0.5;" x1="224" x2="592" y1="444.2969" y2="444.2969"/><ellipse cx="234" cy="457.9453" fill="#84BE84" rx="3" ry="3" style="stroke:#038048;stroke-width:1.0;"/><text fill="#000000" font-family="sans-serif" font-size="14" lengthAdjust="spacing" textLength="344" x="243" y="461.292">Garnish(FastFood fastFood,float price,String desc)</text><ellipse cx="234" cy="474.2422" fill="#84BE84" rx="3" ry="3" style="stroke:#038048;stroke-width:1.0;"/><text fill="#000000" font-family="sans-serif" font-size="14" lengthAdjust="spacing" textLength="166" x="243" y="477.5889">getFastFood():FastFood</text></g><g id="elem_Egg"><rect codeLine="24" fill="#F1F1F1" height="96.8906" id="Egg" rx="2.5" ry="2.5" style="stroke:#181818;stroke-width:0.5;" width="191" x="199.5" y="562"/><ellipse cx="277.25" cy="578" fill="#ADD1B2" rx="11" ry="11" style="stroke:#181818;stroke-width:1.0;"/><path d="M280.2188,583.6406 Q279.6406,583.9375 279,584.0781 Q278.3594,584.2344 277.6563,584.2344 Q275.1563,584.2344 273.8281,582.5938 Q272.5156,580.9375 272.5156,577.8125 Q272.5156,574.6875 273.8281,573.0313 Q275.1563,571.375 277.6563,571.375 Q278.3594,571.375 279,571.5313 Q279.6563,571.6875 280.2188,571.9844 L280.2188,574.7031 Q279.5938,574.125 279,573.8594 Q278.4063,573.5781 277.7813,573.5781 Q276.4375,573.5781 275.75,574.6563 Q275.0625,575.7188 275.0625,577.8125 Q275.0625,579.9063 275.75,580.9844 Q276.4375,582.0469 277.7813,582.0469 Q278.4063,582.0469 279,581.7813 Q279.5938,581.5 280.2188,580.9219 L280.2188,583.6406 Z " fill="#000000"/><text fill="#000000" font-family="sans-serif" font-size="14" lengthAdjust="spacing" textLength="27" x="297.75" y="582.8467">Egg</text><line style="stroke:#181818;stroke-width:0.5;" x1="200.5" x2="389.5" y1="594" y2="594"/><line style="stroke:#181818;stroke-width:0.5;" x1="200.5" x2="389.5" y1="602" y2="602"/><ellipse cx="210.5" cy="615.6484" fill="#84BE84" rx="3" ry="3" style="stroke:#038048;stroke-width:1.0;"/><text fill="#000000" font-family="sans-serif" font-size="14" lengthAdjust="spacing" textLength="165" x="219.5" y="618.9951">Egg(FastFood fastFood)</text><ellipse cx="210.5" cy="631.9453" fill="#84BE84" rx="3" ry="3" style="stroke:#038048;stroke-width:1.0;"/><text fill="#000000" font-family="sans-serif" font-size="14" lengthAdjust="spacing" textLength="74" x="219.5" y="635.292">cost():float</text><ellipse cx="210.5" cy="648.2422" fill="#84BE84" rx="3" ry="3" style="stroke:#038048;stroke-width:1.0;"/><text fill="#000000" font-family="sans-serif" font-size="14" lengthAdjust="spacing" textLength="114" x="219.5" y="651.5889">getDesc():String</text></g><g id="elem_Bacon"><rect codeLine="29" fill="#F1F1F1" height="96.8906" id="Bacon" rx="2.5" ry="2.5" style="stroke:#181818;stroke-width:0.5;" width="191" x="425.5" y="562"/><ellipse cx="494.75" cy="578" fill="#ADD1B2" rx="11" ry="11" style="stroke:#181818;stroke-width:1.0;"/><path d="M497.7188,583.6406 Q497.1406,583.9375 496.5,584.0781 Q495.8594,584.2344 495.1563,584.2344 Q492.6563,584.2344 491.3281,582.5938 Q490.0156,580.9375 490.0156,577.8125 Q490.0156,574.6875 491.3281,573.0313 Q492.6563,571.375 495.1563,571.375 Q495.8594,571.375 496.5,571.5313 Q497.1563,571.6875 497.7188,571.9844 L497.7188,574.7031 Q497.0938,574.125 496.5,573.8594 Q495.9063,573.5781 495.2813,573.5781 Q493.9375,573.5781 493.25,574.6563 Q492.5625,575.7188 492.5625,577.8125 Q492.5625,579.9063 493.25,580.9844 Q493.9375,582.0469 495.2813,582.0469 Q495.9063,582.0469 496.5,581.7813 Q497.0938,581.5 497.7188,580.9219 L497.7188,583.6406 Z " fill="#000000"/><text fill="#000000" font-family="sans-serif" font-size="14" lengthAdjust="spacing" textLength="44" x="515.25" y="582.8467">Bacon</text><line style="stroke:#181818;stroke-width:0.5;" x1="426.5" x2="615.5" y1="594" y2="594"/><line style="stroke:#181818;stroke-width:0.5;" x1="426.5" x2="615.5" y1="602" y2="602"/><ellipse cx="436.5" cy="615.6484" fill="#84BE84" rx="3" ry="3" style="stroke:#038048;stroke-width:1.0;"/><text fill="#000000" font-family="sans-serif" font-size="14" lengthAdjust="spacing" textLength="165" x="445.5" y="618.9951">Egg(FastFood fastFood)</text><ellipse cx="436.5" cy="631.9453" fill="#84BE84" rx="3" ry="3" style="stroke:#038048;stroke-width:1.0;"/><text fill="#000000" font-family="sans-serif" font-size="14" lengthAdjust="spacing" textLength="74" x="445.5" y="635.292">cost():float</text><ellipse cx="436.5" cy="648.2422" fill="#84BE84" rx="3" ry="3" style="stroke:#038048;stroke-width:1.0;"/><text fill="#000000" font-family="sans-serif" font-size="14" lengthAdjust="spacing" textLength="114" x="445.5" y="651.5889">getDesc():String</text></g><g id="link_FastFood_FriedRice"><path codeLine="35" d="M171.5183,181.3198 C142.4713,207.7448 124.758,223.859 100.5448,245.886 " fill="none" id="FastFood-backto-FriedRice" style="stroke:#181818;stroke-width:1.0;"/><polygon fill="none" points="184.833,169.207,167.4807,176.8816,175.5559,185.758,184.833,169.207" style="stroke:#181818;stroke-width:1.0;"/><text fill="#000000" font-family="sans-serif" font-size="13" lengthAdjust="spacing" textLength="26" x="154" y="212.0669">&#32487;&#25215;</text></g><g id="link_FastFood_FriedNoodles"><path codeLine="36" d="M239.843,186.2439 C230.833,212.6689 227.017,223.859 219.507,245.886 " fill="none" id="FastFood-backto-FriedNoodles" style="stroke:#181818;stroke-width:1.0;"/><polygon fill="none" points="245.652,169.207,234.1641,184.3076,245.522,188.1802,245.652,169.207" style="stroke:#181818;stroke-width:1.0;"/><text fill="#000000" font-family="sans-serif" font-size="13" lengthAdjust="spacing" textLength="26" x="237" y="212.0669">&#32487;&#25215;</text></g><g id="link_Garnish_FastFood"><path codeLine="37" d="M422.1251,376.0598 C429.6061,336.6718 432.63,291.776 415,246 C404.169,217.877 385.707,191.662 365.614,169.019 " fill="none" id="Garnish-backto-FastFood" style="stroke:#181818;stroke-width:1.0;"/><polygon fill="none" points="419.886,387.849,424.9353,382.7008,422.1251,376.0598,417.0758,381.208,419.886,387.849" style="stroke:#181818;stroke-width:1.0;"/><text fill="#000000" font-family="sans-serif" font-size="13" lengthAdjust="spacing" textLength="26" x="428" y="291.0669">&#32858;&#21512;</text></g><g id="link_FastFood_Garnish"><path codeLine="38" d="M293.7021,186.7401 C304.8871,233.8491 317.566,276.374 340,327 C349.277,347.934 362.096,369.587 374.106,387.991 " fill="none" id="FastFood-backto-Garnish" style="stroke:#181818;stroke-width:1.0;"/><polygon fill="none" points="289.544,169.227,287.8644,188.1262,299.5398,185.3541,289.544,169.227" style="stroke:#181818;stroke-width:1.0;"/><text fill="#000000" font-family="sans-serif" font-size="13" lengthAdjust="spacing" textLength="65" x="341" y="291.0669">&#32487;&#25215;&#25110;&#23454;&#29616;</text></g><g id="link_Garnish_Bacon"><path codeLine="39" d="M449.3605,500.4558 C465.0335,524.3118 474.042,538.024 489.692,561.8454 " fill="none" id="Garnish-backto-Bacon" style="stroke:#181818;stroke-width:1.0;"/><polygon fill="none" points="439.477,485.412,444.3459,503.7503,454.3751,497.1613,439.477,485.412" style="stroke:#181818;stroke-width:1.0;"/><text fill="#000000" font-family="sans-serif" font-size="13" lengthAdjust="spacing" textLength="26" x="469" y="528.0669">&#32487;&#25215;</text></g><g id="link_Garnish_Egg"><path codeLine="40" d="M366.6395,500.4558 C350.9665,524.3118 341.958,538.024 326.308,561.8454 " fill="none" id="Garnish-backto-Egg" style="stroke:#181818;stroke-width:1.0;"/><polygon fill="none" points="376.523,485.412,361.6249,497.1613,371.6541,503.7503,376.523,485.412" style="stroke:#181818;stroke-width:1.0;"/><text fill="#000000" font-family="sans-serif" font-size="13" lengthAdjust="spacing" textLength="26" x="356" y="528.0669">&#32487;&#25215;</text></g></g></svg>